<svg xmlns="http://www.w3.org/2000/svg" xmlns:xlink="http://www.w3.org/1999/xlink" width="250" zoomAndPan="magnify" viewBox="0 0 187.5 149.999998" height="200" preserveAspectRatio="xMidYMid meet" version="1.0"><defs><clipPath id="473184ce77"><path d="M 21.988281 3.488281 L 164.859375 3.488281 L 164.859375 146.355469 L 21.988281 146.355469 Z M 21.988281 3.488281 " clip-rule="nonzero"/></clipPath><clipPath id="1e1ce69c46"><path d="M 82.09375 49.777344 L 104.535156 49.777344 L 104.535156 78.203125 L 82.09375 78.203125 Z M 82.09375 49.777344 " clip-rule="nonzero"/></clipPath><clipPath id="df2d18d3c0"><path d="M 87 51 L 104.535156 51 L 104.535156 78.203125 L 87 78.203125 Z M 87 51 " clip-rule="nonzero"/></clipPath><clipPath id="133d7911b3"><path d="M 82.09375 49.777344 L 104 49.777344 L 104 78 L 82.09375 78 Z M 82.09375 49.777344 " clip-rule="nonzero"/></clipPath><clipPath id="60f9cd3502"><path d="M 83 49.777344 L 104 49.777344 L 104 78 L 83 78 Z M 83 49.777344 " clip-rule="nonzero"/></clipPath></defs><g clip-path="url(#473184ce77)"><path fill="#001938" d="M 165.007812 75 C 165.007812 76.167969 164.980469 77.339844 164.921875 78.507812 C 164.867188 79.675781 164.78125 80.84375 164.664062 82.007812 C 164.550781 83.171875 164.40625 84.332031 164.234375 85.492188 C 164.0625 86.648438 163.863281 87.800781 163.636719 88.949219 C 163.40625 90.097656 163.152344 91.238281 162.867188 92.375 C 162.582031 93.507812 162.269531 94.636719 161.929688 95.757812 C 161.589844 96.875 161.222656 97.988281 160.828125 99.089844 C 160.433594 100.191406 160.015625 101.28125 159.566406 102.363281 C 159.117188 103.445312 158.644531 104.515625 158.144531 105.574219 C 157.644531 106.632812 157.117188 107.675781 156.566406 108.707031 C 156.015625 109.742188 155.4375 110.757812 154.835938 111.761719 C 154.234375 112.765625 153.609375 113.753906 152.957031 114.726562 C 152.308594 115.699219 151.632812 116.65625 150.9375 117.597656 C 150.238281 118.539062 149.519531 119.460938 148.777344 120.363281 C 148.035156 121.269531 147.269531 122.15625 146.484375 123.023438 C 145.699219 123.890625 144.890625 124.738281 144.066406 125.5625 C 143.238281 126.390625 142.390625 127.199219 141.523438 127.984375 C 140.65625 128.769531 139.769531 129.535156 138.863281 130.277344 C 137.960938 131.019531 137.039062 131.738281 136.097656 132.4375 C 135.15625 133.132812 134.203125 133.808594 133.226562 134.457031 C 132.253906 135.109375 131.265625 135.734375 130.261719 136.335938 C 129.257812 136.9375 128.242188 137.511719 127.207031 138.066406 C 126.175781 138.617188 125.132812 139.144531 124.074219 139.644531 C 123.015625 140.144531 121.945312 140.617188 120.863281 141.066406 C 119.785156 141.511719 118.691406 141.933594 117.589844 142.328125 C 116.488281 142.722656 115.378906 143.089844 114.257812 143.429688 C 113.136719 143.769531 112.011719 144.082031 110.875 144.367188 C 109.738281 144.648438 108.597656 144.90625 107.449219 145.136719 C 106.300781 145.363281 105.148438 145.5625 103.992188 145.734375 C 102.835938 145.90625 101.671875 146.050781 100.507812 146.164062 C 99.34375 146.28125 98.175781 146.367188 97.007812 146.421875 C 95.839844 146.480469 94.667969 146.507812 93.5 146.507812 C 92.328125 146.507812 91.160156 146.480469 89.992188 146.421875 C 88.820312 146.367188 87.65625 146.28125 86.488281 146.164062 C 85.324219 146.050781 84.164062 145.90625 83.007812 145.734375 C 81.847656 145.5625 80.695312 145.363281 79.546875 145.136719 C 78.398438 144.90625 77.257812 144.648438 76.125 144.367188 C 74.988281 144.082031 73.859375 143.769531 72.742188 143.429688 C 71.621094 143.089844 70.511719 142.722656 69.40625 142.328125 C 68.304688 141.933594 67.214844 141.511719 66.132812 141.066406 C 65.050781 140.617188 63.984375 140.144531 62.925781 139.644531 C 61.867188 139.144531 60.820312 138.617188 59.789062 138.066406 C 58.757812 137.511719 57.738281 136.9375 56.734375 136.335938 C 55.730469 135.734375 54.742188 135.109375 53.769531 134.457031 C 52.796875 133.808594 51.839844 133.132812 50.902344 132.4375 C 49.960938 131.738281 49.039062 131.019531 48.132812 130.277344 C 47.230469 129.535156 46.34375 128.769531 45.476562 127.984375 C 44.609375 127.199219 43.761719 126.390625 42.933594 125.5625 C 42.105469 124.738281 41.300781 123.890625 40.511719 123.023438 C 39.726562 122.15625 38.964844 121.269531 38.222656 120.363281 C 37.476562 119.460938 36.757812 118.539062 36.0625 117.597656 C 35.363281 116.65625 34.691406 115.699219 34.039062 114.726562 C 33.390625 113.753906 32.765625 112.765625 32.164062 111.761719 C 31.5625 110.757812 30.984375 109.742188 30.433594 108.707031 C 29.882812 107.675781 29.355469 106.632812 28.855469 105.574219 C 28.355469 104.515625 27.878906 103.445312 27.433594 102.363281 C 26.984375 101.28125 26.5625 100.191406 26.167969 99.089844 C 25.773438 97.988281 25.40625 96.875 25.066406 95.757812 C 24.726562 94.636719 24.417969 93.507812 24.132812 92.375 C 23.847656 91.238281 23.589844 90.097656 23.363281 88.949219 C 23.132812 87.800781 22.933594 86.648438 22.761719 85.492188 C 22.589844 84.332031 22.449219 83.171875 22.332031 82.007812 C 22.21875 80.84375 22.132812 79.675781 22.074219 78.507812 C 22.015625 77.339844 21.988281 76.167969 21.988281 75 C 21.988281 73.828125 22.015625 72.660156 22.074219 71.488281 C 22.132812 70.320312 22.21875 69.152344 22.332031 67.988281 C 22.449219 66.824219 22.589844 65.664062 22.761719 64.503906 C 22.933594 63.347656 23.132812 62.195312 23.363281 61.046875 C 23.589844 59.898438 23.847656 58.757812 24.132812 57.621094 C 24.417969 56.488281 24.726562 55.359375 25.066406 54.238281 C 25.40625 53.121094 25.773438 52.007812 26.167969 50.90625 C 26.5625 49.804688 26.984375 48.714844 27.433594 47.632812 C 27.878906 46.550781 28.355469 45.480469 28.855469 44.421875 C 29.355469 43.367188 29.882812 42.320312 30.433594 41.289062 C 30.984375 40.257812 31.5625 39.238281 32.164062 38.234375 C 32.765625 37.230469 33.390625 36.242188 34.039062 35.269531 C 34.691406 34.296875 35.363281 33.339844 36.0625 32.398438 C 36.757812 31.460938 37.476562 30.539062 38.222656 29.632812 C 38.964844 28.726562 39.726562 27.84375 40.511719 26.976562 C 41.300781 26.109375 42.105469 25.261719 42.933594 24.433594 C 43.761719 23.605469 44.609375 22.796875 45.476562 22.011719 C 46.34375 21.226562 47.230469 20.460938 48.132812 19.71875 C 49.039062 18.976562 49.960938 18.257812 50.902344 17.5625 C 51.839844 16.863281 52.796875 16.191406 53.769531 15.539062 C 54.742188 14.890625 55.730469 14.261719 56.734375 13.660156 C 57.738281 13.058594 58.757812 12.484375 59.789062 11.933594 C 60.820312 11.378906 61.867188 10.855469 62.925781 10.355469 C 63.984375 9.851562 65.050781 9.378906 66.132812 8.929688 C 67.214844 8.484375 68.304688 8.0625 69.40625 7.667969 C 70.511719 7.273438 71.621094 6.90625 72.742188 6.566406 C 73.859375 6.226562 74.988281 5.914062 76.125 5.632812 C 77.257812 5.347656 78.398438 5.089844 79.546875 4.863281 C 80.695312 4.632812 81.847656 4.433594 83.007812 4.261719 C 84.164062 4.089844 85.324219 3.945312 86.488281 3.832031 C 87.65625 3.71875 88.820312 3.632812 89.992188 3.574219 C 91.160156 3.515625 92.328125 3.488281 93.5 3.488281 C 94.667969 3.488281 95.839844 3.515625 97.007812 3.574219 C 98.175781 3.632812 99.34375 3.71875 100.507812 3.832031 C 101.671875 3.945312 102.835938 4.089844 103.992188 4.261719 C 105.148438 4.433594 106.300781 4.632812 107.449219 4.863281 C 108.597656 5.089844 109.738281 5.347656 110.875 5.632812 C 112.011719 5.914062 113.136719 6.226562 114.257812 6.566406 C 115.378906 6.90625 116.488281 7.273438 117.589844 7.667969 C 118.691406 8.0625 119.785156 8.484375 120.863281 8.929688 C 121.945312 9.378906 123.015625 9.851562 124.074219 10.355469 C 125.132812 10.855469 126.175781 11.378906 127.207031 11.933594 C 128.242188 12.484375 129.257812 13.058594 130.261719 13.660156 C 131.265625 14.261719 132.253906 14.890625 133.226562 15.539062 C 134.203125 16.191406 135.15625 16.863281 136.097656 17.5625 C 137.039062 18.257812 137.960938 18.976562 138.863281 19.71875 C 139.769531 20.460938 140.65625 21.226562 141.523438 22.011719 C 142.390625 22.796875 143.238281 23.605469 144.066406 24.433594 C 144.890625 25.261719 145.699219 26.109375 146.484375 26.976562 C 147.269531 27.84375 148.035156 28.726562 148.777344 29.632812 C 149.519531 30.539062 150.238281 31.460938 150.9375 32.398438 C 151.632812 33.339844 152.308594 34.296875 152.957031 35.269531 C 153.609375 36.242188 154.234375 37.230469 154.835938 38.234375 C 155.4375 39.238281 156.015625 40.257812 156.566406 41.289062 C 157.117188 42.320312 157.644531 43.367188 158.144531 44.421875 C 158.644531 45.480469 159.117188 46.550781 159.566406 47.632812 C 160.015625 48.714844 160.433594 49.804688 160.828125 50.90625 C 161.222656 52.007812 161.589844 53.121094 161.929688 54.238281 C 162.269531 55.359375 162.582031 56.488281 162.867188 57.621094 C 163.152344 58.757812 163.40625 59.898438 163.636719 61.046875 C 163.863281 62.195312 164.0625 63.347656 164.234375 64.503906 C 164.40625 65.664062 164.550781 66.824219 164.664062 67.988281 C 164.78125 69.152344 164.867188 70.320312 164.921875 71.488281 C 164.980469 72.660156 165.007812 73.828125 165.007812 75 Z M 165.007812 75 " fill-opacity="1" fill-rule="nonzero"/></g><path fill="#ffffff" d="M 116.78125 42.335938 L 116.78125 102.496094 L 96.542969 86.65625 L 93.5 84.289062 L 90.453125 86.65625 L 70.214844 102.496094 L 70.214844 42.335938 L 116.78125 42.335938 M 121.703125 37.414062 L 65.292969 37.414062 L 65.292969 112.582031 L 93.5 90.5 L 121.703125 112.582031 Z M 121.703125 37.414062 " fill-opacity="1" fill-rule="nonzero"/><g clip-path="url(#1e1ce69c46)"><path fill="#fffffd" d="M 104.804688 62.601562 L 104.796875 62.5 C 104.765625 62.023438 104.734375 61.53125 104.675781 61.050781 C 104.582031 60.367188 104.425781 59.699219 104.226562 58.90625 C 104.199219 58.816406 104.171875 58.726562 104.140625 58.636719 C 104.066406 58.390625 103.988281 58.136719 103.921875 57.875 C 103.871094 57.648438 103.769531 57.4375 103.675781 57.234375 C 103.609375 57.09375 103.542969 56.949219 103.488281 56.796875 C 103.476562 56.78125 103.46875 56.75 103.460938 56.71875 C 103.445312 56.660156 103.429688 56.59375 103.382812 56.582031 C 103.378906 56.578125 103.375 56.574219 103.375 56.566406 C 103.371094 56.5625 103.367188 56.558594 103.367188 56.554688 C 103.367188 56.546875 103.363281 56.539062 103.359375 56.53125 C 103.316406 56.453125 103.277344 56.371094 103.238281 56.292969 C 103.167969 56.148438 103.097656 56 103.015625 55.859375 C 102.34375 54.660156 101.417969 53.574219 100.257812 52.625 C 99.871094 52.304688 99.441406 52.046875 99.074219 51.839844 C 98.976562 51.792969 98.871094 51.742188 98.753906 51.691406 C 98.753906 51.691406 98.75 51.691406 98.746094 51.6875 L 98.742188 51.683594 C 98.355469 51.359375 97.925781 51.101562 97.558594 50.894531 C 97.222656 50.730469 96.886719 50.601562 96.480469 50.457031 C 96.132812 50.335938 95.765625 50.269531 95.410156 50.199219 L 95.382812 50.195312 C 95.199219 50.164062 95.011719 50.117188 94.832031 50.074219 C 94.554688 50.007812 94.269531 49.9375 93.984375 49.910156 C 93.984375 49.910156 93.980469 49.910156 93.980469 49.910156 C 93.945312 49.910156 93.847656 49.902344 93.714844 49.890625 C 93.402344 49.863281 92.878906 49.816406 92.5625 49.839844 L 92.558594 49.839844 C 92.546875 49.820312 92.527344 49.816406 92.5 49.820312 C 92.230469 49.800781 91.953125 49.804688 91.679688 49.8125 C 91.324219 49.878906 90.976562 49.964844 90.613281 50 C 90.136719 50.082031 89.679688 50.25 89.238281 50.449219 C 88.859375 50.558594 88.503906 50.742188 88.152344 50.917969 C 87.925781 51.050781 87.695312 51.179688 87.492188 51.351562 C 87.332031 51.511719 87.136719 51.621094 86.949219 51.742188 C 86.726562 51.878906 86.554688 52.074219 86.363281 52.246094 C 86.210938 52.367188 86.042969 52.480469 85.929688 52.648438 C 85.816406 52.777344 85.734375 52.917969 85.617188 53.042969 C 85.390625 53.265625 85.175781 53.496094 84.972656 53.742188 C 84.71875 54.019531 84.546875 54.355469 84.351562 54.675781 C 84.167969 54.9375 84.023438 55.230469 83.878906 55.519531 C 83.707031 55.804688 83.59375 56.128906 83.453125 56.433594 C 83.367188 56.605469 83.292969 56.78125 83.234375 56.964844 C 83.195312 57.082031 82.941406 57.515625 83.0625 57.613281 L 83.058594 57.617188 C 83.054688 57.640625 83.046875 57.664062 83.042969 57.6875 C 83.011719 57.804688 82.972656 57.925781 82.941406 58.039062 C 82.902344 58.164062 82.863281 58.292969 82.832031 58.417969 C 82.652344 59.039062 82.550781 59.691406 82.449219 60.316406 C 82.433594 60.414062 82.417969 60.511719 82.402344 60.609375 C 82.191406 61.675781 82.105469 62.828125 82.121094 64.238281 C 82.109375 65.339844 82.183594 66.242188 82.355469 67.078125 C 82.394531 67.261719 82.429688 67.449219 82.460938 67.632812 C 82.535156 68.03125 82.609375 68.441406 82.726562 68.835938 C 82.84375 69.269531 82.957031 69.648438 83.074219 70 L 83.085938 70.03125 L 83.085938 70.023438 C 83.21875 70.542969 83.421875 71.039062 83.640625 71.527344 C 83.734375 71.785156 83.914062 71.992188 84.035156 72.234375 C 84.191406 72.542969 84.34375 72.855469 84.5625 73.125 C 84.582031 73.160156 84.597656 73.203125 84.648438 73.207031 C 84.65625 73.207031 84.660156 73.203125 84.667969 73.203125 C 84.726562 73.285156 84.785156 73.363281 84.839844 73.4375 C 85.238281 73.960938 85.785156 74.625 86.457031 75.148438 C 86.925781 75.503906 87.433594 75.820312 87.964844 76.089844 L 87.972656 76.09375 C 88.691406 76.636719 89.472656 77.078125 90.304688 77.40625 C 91.304688 77.746094 92.136719 77.972656 92.925781 78.121094 C 92.9375 78.125 92.945312 78.125 92.953125 78.121094 C 92.964844 78.121094 92.976562 78.121094 92.984375 78.121094 C 93.007812 78.125 93.027344 78.125 93.046875 78.128906 C 93.113281 78.128906 93.179688 78.128906 93.25 78.128906 C 93.703125 78.128906 94.214844 78.117188 94.71875 78.066406 L 94.730469 78.066406 C 95.382812 78.035156 96.058594 78 96.699219 77.8125 C 98.339844 77.308594 99.855469 76.414062 101.078125 75.226562 C 101.890625 74.425781 102.597656 73.386719 103.175781 72.140625 C 103.484375 71.4375 103.738281 70.707031 103.988281 69.960938 C 104.03125 69.84375 104.066406 69.71875 104.097656 69.597656 C 104.140625 69.441406 104.1875 69.277344 104.246094 69.121094 C 104.253906 69.101562 104.253906 69.082031 104.242188 69.0625 C 104.257812 69.011719 104.277344 68.957031 104.292969 68.90625 C 104.335938 68.777344 104.378906 68.644531 104.414062 68.507812 C 104.53125 68.097656 104.65625 67.609375 104.695312 67.109375 C 104.792969 66.335938 104.851562 65.554688 104.863281 64.78125 C 104.890625 64.152344 104.875 63.480469 104.804688 62.601562 Z M 96.578125 57.691406 C 96.613281 57.796875 96.648438 57.90625 96.683594 58.015625 C 96.859375 58.550781 97.042969 59.101562 97.144531 59.667969 C 97.191406 59.972656 97.226562 60.296875 97.265625 60.695312 L 97.265625 60.699219 C 97.210938 60.71875 97.214844 60.800781 97.222656 60.851562 C 97.273438 61.195312 97.273438 61.554688 97.332031 61.898438 C 97.355469 62.191406 97.332031 62.484375 97.34375 62.78125 C 97.355469 62.949219 97.355469 63.117188 97.332031 63.289062 C 97.304688 63.570312 97.316406 63.851562 97.34375 64.132812 C 97.367188 64.355469 97.3125 64.582031 97.296875 64.804688 C 97.253906 65.128906 97.265625 65.449219 97.277344 65.773438 C 97.273438 66.011719 97.207031 66.253906 97.167969 66.492188 C 97.121094 66.753906 97.089844 67.015625 97 67.269531 C 96.988281 67.355469 96.859375 67.578125 96.960938 67.628906 C 96.96875 67.632812 96.976562 67.632812 96.984375 67.632812 C 96.902344 67.972656 96.816406 68.269531 96.726562 68.546875 C 96.53125 69.089844 96.265625 69.652344 95.925781 70.222656 C 95.898438 70.273438 95.867188 70.324219 95.835938 70.375 C 95.601562 70.769531 95.355469 71.175781 95.003906 71.480469 C 94.476562 71.886719 93.871094 72.171875 93.300781 72.289062 C 92.777344 72.378906 92.230469 72.351562 91.71875 72.21875 L 91.710938 72.214844 C 91.699219 72.195312 91.675781 72.179688 91.648438 72.179688 C 91.640625 72.175781 91.628906 72.175781 91.617188 72.171875 L 91.609375 72.164062 C 91.164062 71.699219 90.808594 71.152344 90.558594 70.546875 C 90.457031 70.300781 90.371094 70.046875 90.285156 69.796875 C 90.226562 69.617188 90.164062 69.433594 90.09375 69.25 C 90.089844 69.226562 90.082031 69.191406 90.058594 69.175781 C 90.035156 69.070312 90.007812 68.960938 89.984375 68.859375 C 89.949219 68.714844 89.914062 68.566406 89.882812 68.417969 C 89.675781 67.464844 89.574219 66.519531 89.582031 65.609375 C 89.585938 64.421875 89.675781 63.25 89.785156 61.949219 C 89.910156 60.953125 90.191406 60 90.421875 59.28125 C 90.789062 58.078125 91.242188 57.175781 92.363281 56.414062 C 92.570312 56.253906 92.785156 56.117188 93.023438 56 C 93.222656 55.894531 93.445312 55.773438 93.703125 55.734375 C 93.714844 55.734375 93.730469 55.730469 93.746094 55.730469 C 93.78125 55.730469 93.8125 55.730469 93.832031 55.707031 C 94.015625 55.722656 94.203125 55.71875 94.386719 55.714844 L 94.449219 55.710938 C 94.800781 55.722656 95.132812 55.761719 95.4375 55.828125 L 95.445312 55.828125 C 95.46875 55.855469 95.496094 55.878906 95.511719 55.910156 C 95.527344 55.925781 95.554688 55.929688 95.574219 55.921875 L 95.578125 55.925781 C 95.707031 56.082031 95.835938 56.261719 95.972656 56.476562 C 96.191406 56.820312 96.433594 57.234375 96.578125 57.691406 Z M 96.578125 57.691406 " fill-opacity="1" fill-rule="nonzero"/></g><g clip-path="url(#df2d18d3c0)"><path fill="#fffffd" d="M 91.945312 54.855469 L 91.9375 54.832031 L 91.945312 54.832031 C 92.027344 54.804688 92.105469 54.785156 92.183594 54.773438 C 92.195312 54.769531 92.214844 54.769531 92.230469 54.769531 L 92.242188 54.769531 L 92.242188 54.785156 L 92.292969 54.757812 C 92.296875 54.753906 92.300781 54.75 92.304688 54.746094 L 92.3125 54.738281 L 92.320312 54.742188 C 92.324219 54.742188 92.332031 54.742188 92.339844 54.742188 L 92.34375 54.746094 C 92.347656 54.746094 92.355469 54.746094 92.359375 54.746094 L 92.457031 54.753906 L 92.363281 54.769531 C 92.351562 54.773438 92.339844 54.773438 92.328125 54.777344 L 92.230469 54.792969 C 92.128906 54.8125 92.039062 54.835938 91.953125 54.855469 Z M 94.609375 55.132812 C 94.648438 55.15625 94.691406 55.175781 94.746094 55.203125 L 94.753906 55.207031 L 94.765625 55.183594 L 94.757812 55.179688 C 94.699219 55.144531 94.636719 55.113281 94.570312 55.082031 L 94.566406 55.078125 L 94.554688 55.101562 L 94.574219 55.113281 C 94.585938 55.117188 94.597656 55.125 94.609375 55.132812 Z M 97.703125 75.734375 C 97.914062 75.648438 98.089844 75.519531 98.289062 75.347656 L 98.292969 75.34375 L 98.277344 75.324219 L 98.273438 75.328125 C 98.085938 75.457031 97.890625 75.589844 97.6875 75.710938 L 97.683594 75.714844 L 97.695312 75.738281 Z M 104.808594 62.601562 L 104.804688 62.5 C 104.773438 62.023438 104.742188 61.53125 104.679688 61.050781 C 104.585938 60.367188 104.433594 59.695312 104.230469 58.902344 C 104.203125 58.816406 104.179688 58.730469 104.152344 58.644531 L 104.148438 58.632812 C 104.074219 58.386719 103.996094 58.132812 103.929688 57.875 C 103.875 57.648438 103.777344 57.4375 103.679688 57.230469 C 103.617188 57.09375 103.546875 56.945312 103.492188 56.792969 C 103.484375 56.777344 103.476562 56.75 103.46875 56.71875 C 103.453125 56.660156 103.4375 56.589844 103.386719 56.578125 C 103.382812 56.574219 103.382812 56.570312 103.378906 56.566406 C 103.375 56.5625 103.375 56.554688 103.371094 56.554688 C 103.371094 56.546875 103.367188 56.539062 103.363281 56.53125 C 103.324219 56.449219 103.285156 56.367188 103.246094 56.289062 C 103.175781 56.144531 103.101562 55.996094 103.019531 55.855469 C 102.351562 54.65625 101.421875 53.570312 100.261719 52.621094 C 99.875 52.296875 99.445312 52.042969 99.074219 51.835938 C 98.980469 51.785156 98.875 51.738281 98.757812 51.6875 L 98.675781 51.652344 L 98.742188 51.707031 C 99.894531 52.652344 100.816406 53.734375 101.480469 54.921875 C 101.5625 55.0625 101.636719 55.210938 101.707031 55.355469 L 101.707031 55.359375 C 101.746094 55.4375 101.785156 55.519531 101.828125 55.597656 C 101.828125 55.601562 101.832031 55.609375 101.832031 55.613281 L 101.855469 55.65625 L 101.859375 55.65625 C 101.898438 55.664062 101.914062 55.726562 101.929688 55.78125 C 101.9375 55.8125 101.945312 55.84375 101.953125 55.859375 C 102.007812 56.011719 102.074219 56.15625 102.140625 56.296875 C 102.238281 56.5 102.335938 56.710938 102.386719 56.9375 C 102.453125 57.199219 102.535156 57.453125 102.609375 57.695312 L 102.621094 57.730469 C 102.644531 57.808594 102.667969 57.886719 102.691406 57.964844 C 102.796875 58.378906 102.917969 58.863281 103.011719 59.359375 L 103.015625 59.367188 L 103.019531 59.367188 C 103.085938 59.402344 103.097656 59.546875 103.105469 59.648438 C 103.105469 59.683594 103.109375 59.714844 103.113281 59.734375 C 103.128906 60.078125 103.195312 60.414062 103.261719 60.742188 C 103.273438 60.800781 103.285156 60.863281 103.296875 60.925781 C 103.3125 61.039062 103.316406 61.152344 103.324219 61.265625 C 103.335938 61.464844 103.351562 61.671875 103.394531 61.867188 C 103.425781 62.054688 103.410156 62.242188 103.394531 62.425781 L 103.390625 62.429688 C 103.386719 62.496094 103.382812 62.566406 103.378906 62.632812 C 103.378906 62.75 103.386719 62.867188 103.398438 62.980469 C 103.40625 63.082031 103.417969 63.1875 103.417969 63.289062 C 103.425781 63.589844 103.410156 63.898438 103.390625 64.195312 C 103.382812 64.316406 103.375 64.441406 103.371094 64.5625 C 103.371094 64.601562 103.371094 64.640625 103.371094 64.675781 C 103.375 64.941406 103.375 65.214844 103.324219 65.480469 C 103.308594 65.601562 103.296875 65.722656 103.285156 65.839844 C 103.269531 66 103.253906 66.167969 103.226562 66.328125 C 103.210938 66.386719 103.199219 66.441406 103.1875 66.5 C 103.128906 66.769531 103.066406 67.050781 103.03125 67.332031 C 103.003906 67.511719 102.949219 67.6875 102.898438 67.863281 C 102.875 67.953125 102.847656 68.046875 102.824219 68.140625 C 102.792969 68.25 102.753906 68.367188 102.710938 68.488281 C 102.710938 68.5 102.703125 68.503906 102.695312 68.507812 C 102.679688 68.515625 102.660156 68.511719 102.640625 68.503906 C 102.636719 68.5 102.632812 68.5 102.625 68.492188 L 102.613281 68.484375 L 102.605469 68.5 C 102.59375 68.550781 102.578125 68.597656 102.566406 68.648438 C 102.53125 68.769531 102.496094 68.890625 102.457031 69.011719 C 102.238281 69.652344 102.003906 70.332031 101.730469 70.980469 C 101.71875 71.03125 101.6875 71.097656 101.660156 71.15625 C 101.636719 71.199219 101.621094 71.238281 101.613281 71.257812 C 101.566406 71.367188 101.511719 71.476562 101.460938 71.582031 L 101.460938 71.585938 C 101.351562 71.804688 101.242188 72.035156 101.164062 72.269531 C 101.03125 72.640625 100.800781 72.96875 100.59375 73.238281 C 100.566406 73.273438 100.539062 73.3125 100.515625 73.347656 C 100.457031 73.429688 100.398438 73.511719 100.332031 73.585938 C 100.273438 73.652344 100.210938 73.707031 100.152344 73.761719 L 100.148438 73.761719 C 100.085938 73.820312 100.019531 73.878906 99.960938 73.945312 C 99.796875 74.164062 99.570312 74.441406 99.285156 74.667969 C 99.179688 74.75 99.078125 74.839844 98.984375 74.929688 C 98.863281 75.035156 98.742188 75.148438 98.605469 75.242188 C 98.296875 75.441406 98.019531 75.628906 97.765625 75.820312 C 97.464844 76.035156 97.117188 76.167969 96.78125 76.292969 L 96.777344 76.296875 C 96.648438 76.347656 96.515625 76.398438 96.382812 76.453125 C 96.355469 76.46875 96.324219 76.484375 96.292969 76.5 L 96.285156 76.5 C 96.144531 76.574219 96 76.644531 95.84375 76.6875 C 95.769531 76.707031 95.691406 76.71875 95.617188 76.734375 C 95.5625 76.742188 95.503906 76.75 95.449219 76.761719 C 95.347656 76.796875 95.261719 76.824219 95.179688 76.851562 C 94.871094 76.9375 94.542969 77 94.132812 77.042969 C 93.921875 77.097656 93.679688 77.128906 93.417969 77.144531 L 93.414062 77.144531 C 93.394531 77.144531 93.375 77.148438 93.363281 77.132812 C 93.359375 77.125 93.355469 77.113281 93.355469 77.105469 L 93.351562 77.097656 L 93.203125 77.105469 C 92.621094 77.164062 92.03125 77.167969 91.535156 77.164062 C 91.511719 77.160156 91.492188 77.160156 91.46875 77.160156 C 91.460938 77.160156 91.449219 77.160156 91.4375 77.15625 L 91.433594 77.160156 C 91.429688 77.160156 91.421875 77.160156 91.414062 77.160156 C 90.625 77.007812 89.792969 76.78125 88.792969 76.445312 C 88.527344 76.339844 88.25 76.214844 87.976562 76.074219 L 87.96875 76.070312 L 87.957031 76.09375 L 87.96875 76.097656 C 88.6875 76.640625 89.472656 77.082031 90.300781 77.414062 C 91.300781 77.75 92.136719 77.976562 92.925781 78.128906 C 92.9375 78.128906 92.945312 78.128906 92.957031 78.128906 C 92.964844 78.128906 92.972656 78.128906 92.980469 78.128906 L 92.988281 78.128906 C 93.007812 78.128906 93.027344 78.128906 93.046875 78.132812 C 93.113281 78.132812 93.179688 78.132812 93.25 78.132812 C 93.617188 78.132812 94.171875 78.128906 94.71875 78.074219 L 94.730469 78.074219 C 95.382812 78.039062 96.058594 78.003906 96.703125 77.816406 C 98.34375 77.316406 99.859375 76.421875 101.082031 75.230469 C 101.898438 74.429688 102.601562 73.390625 103.179688 72.140625 C 103.492188 71.4375 103.742188 70.710938 103.996094 69.964844 C 104.035156 69.84375 104.070312 69.722656 104.105469 69.601562 L 104.097656 69.601562 L 104.105469 69.601562 C 104.148438 69.441406 104.195312 69.28125 104.253906 69.125 C 104.261719 69.105469 104.257812 69.082031 104.25 69.0625 C 104.265625 69.011719 104.28125 68.960938 104.296875 68.914062 L 104.300781 68.90625 C 104.34375 68.777344 104.386719 68.644531 104.421875 68.511719 C 104.539062 68.101562 104.660156 67.613281 104.703125 67.109375 C 104.800781 66.339844 104.855469 65.554688 104.871094 64.78125 C 104.898438 64.152344 104.878906 63.480469 104.808594 62.601562 Z M 100.667969 72.976562 C 100.6875 72.941406 100.710938 72.90625 100.730469 72.871094 L 100.753906 72.835938 L 100.730469 72.824219 L 100.730469 72.828125 C 100.675781 72.910156 100.617188 72.992188 100.550781 73.085938 L 100.546875 73.09375 L 100.566406 73.105469 L 100.601562 73.0625 C 100.625 73.035156 100.644531 73.007812 100.667969 72.976562 Z M 99.847656 74.003906 C 99.859375 73.988281 99.871094 73.976562 99.878906 73.964844 C 99.886719 73.953125 99.894531 73.941406 99.902344 73.933594 L 99.90625 73.929688 L 99.890625 73.914062 L 99.886719 73.917969 C 99.816406 73.996094 99.742188 74.074219 99.65625 74.15625 L 99.652344 74.160156 L 99.671875 74.179688 L 99.675781 74.175781 C 99.746094 74.113281 99.800781 74.058594 99.847656 74.003906 Z M 88.21875 66.699219 L 88.226562 66.699219 L 88.21875 66.703125 C 88.230469 66.75 88.242188 66.796875 88.253906 66.84375 C 88.273438 66.941406 88.289062 67.046875 88.300781 67.144531 L 88.300781 67.148438 C 88.332031 67.359375 88.367188 67.578125 88.449219 67.78125 C 88.5 67.929688 88.523438 68.078125 88.546875 68.222656 C 88.554688 68.253906 88.558594 68.289062 88.566406 68.324219 C 88.632812 68.503906 88.695312 68.683594 88.753906 68.859375 C 88.835938 69.105469 88.925781 69.363281 89.023438 69.609375 C 89.125 69.855469 89.246094 70.097656 89.386719 70.328125 L 89.429688 70.386719 C 89.664062 70.722656 89.910156 71.070312 90.234375 71.339844 C 90.566406 71.671875 90.875 71.894531 91.199219 72.035156 C 91.21875 72.042969 91.238281 72.050781 91.257812 72.058594 C 91.371094 72.105469 91.488281 72.15625 91.601562 72.183594 L 91.644531 72.191406 L 91.613281 72.160156 C 91.167969 71.695312 90.8125 71.152344 90.5625 70.546875 C 90.464844 70.300781 90.375 70.042969 90.292969 69.796875 C 90.230469 69.617188 90.167969 69.429688 90.101562 69.25 C 90.097656 69.222656 90.089844 69.191406 90.0625 69.171875 C 90.039062 69.070312 90.015625 68.96875 89.992188 68.867188 L 89.988281 68.855469 C 89.957031 68.71875 89.921875 68.566406 89.890625 68.417969 C 89.679688 67.460938 89.578125 66.519531 89.589844 65.609375 C 89.59375 64.421875 89.683594 63.25 89.792969 61.949219 C 89.917969 60.953125 90.195312 60.003906 90.425781 59.285156 C 90.792969 58.082031 91.246094 57.179688 92.367188 56.417969 C 92.574219 56.257812 92.789062 56.125 93.027344 56.003906 C 93.222656 55.898438 93.449219 55.777344 93.703125 55.742188 C 93.714844 55.738281 93.730469 55.738281 93.746094 55.738281 C 93.78125 55.738281 93.816406 55.734375 93.835938 55.710938 C 94.019531 55.730469 94.203125 55.722656 94.382812 55.71875 L 94.449219 55.71875 C 94.800781 55.726562 95.132812 55.765625 95.433594 55.835938 L 95.480469 55.84375 L 95.445312 55.8125 C 95.417969 55.785156 95.386719 55.761719 95.359375 55.738281 C 95.339844 55.71875 95.316406 55.703125 95.296875 55.683594 C 94.96875 55.371094 94.539062 55.175781 94.164062 55.023438 C 94.097656 55 94.03125 54.972656 93.96875 54.945312 C 93.851562 54.898438 93.730469 54.847656 93.605469 54.816406 C 93.269531 54.769531 92.96875 54.734375 92.664062 54.761719 C 92.410156 54.792969 92.167969 54.878906 91.933594 54.960938 L 91.933594 54.964844 C 91.828125 55 91.722656 55.039062 91.613281 55.070312 C 91.589844 55.078125 91.570312 55.085938 91.546875 55.09375 C 91.402344 55.140625 91.25 55.1875 91.113281 55.257812 C 91.011719 55.324219 90.921875 55.386719 90.835938 55.453125 C 90.808594 55.472656 90.777344 55.492188 90.75 55.511719 C 90.695312 55.558594 90.640625 55.609375 90.585938 55.65625 C 90.5625 55.679688 90.539062 55.699219 90.515625 55.71875 C 90.449219 55.78125 90.378906 55.839844 90.3125 55.894531 C 90.1875 55.996094 90.058594 56.101562 89.953125 56.226562 C 89.855469 56.351562 89.757812 56.484375 89.667969 56.613281 L 89.628906 56.667969 C 89.585938 56.730469 89.542969 56.792969 89.5 56.851562 L 89.5 56.855469 C 89.332031 57.140625 89.183594 57.464844 89.046875 57.851562 C 89.027344 57.90625 89.011719 57.960938 88.992188 58.015625 C 88.964844 58.101562 88.933594 58.195312 88.902344 58.289062 C 88.898438 58.300781 88.894531 58.3125 88.890625 58.324219 L 88.890625 58.332031 C 88.894531 58.34375 88.894531 58.355469 88.890625 58.367188 C 88.832031 58.539062 88.777344 58.714844 88.730469 58.886719 C 88.703125 58.980469 88.675781 59.074219 88.644531 59.167969 C 88.589844 59.375 88.550781 59.59375 88.53125 59.832031 C 88.511719 59.988281 88.46875 60.140625 88.429688 60.292969 C 88.402344 60.390625 88.371094 60.492188 88.351562 60.59375 C 88.316406 60.785156 88.3125 60.980469 88.308594 61.167969 C 88.304688 61.351562 88.296875 61.542969 88.261719 61.730469 C 88.183594 62.046875 88.1875 62.378906 88.191406 62.699219 C 88.191406 62.785156 88.195312 62.875 88.195312 62.960938 C 88.195312 63.121094 88.175781 63.285156 88.160156 63.441406 C 88.144531 63.582031 88.125 63.726562 88.125 63.871094 C 88.128906 64.453125 88.132812 65.226562 88.125 65.992188 C 88.121094 66.027344 88.121094 66.0625 88.121094 66.101562 C 88.136719 66.222656 88.152344 66.351562 88.171875 66.496094 C 88.1875 66.5625 88.203125 66.632812 88.21875 66.699219 Z M 88.21875 66.699219 " fill-opacity="1" fill-rule="nonzero"/></g><g clip-path="url(#133d7911b3)"><path fill="#437fa2" d="M 88.195312 66.492188 L 88.195312 66.496094 L 88.171875 66.5 L 88.171875 66.496094 C 88.136719 66.339844 88.121094 66.214844 88.121094 66.097656 L 88.121094 66.09375 L 88.144531 66.09375 L 88.144531 66.097656 C 88.160156 66.21875 88.175781 66.347656 88.195312 66.492188 Z M 89.046875 69.601562 C 88.945312 69.355469 88.859375 69.097656 88.777344 68.851562 L 88.777344 68.847656 C 88.714844 68.675781 88.65625 68.492188 88.589844 68.316406 L 88.585938 68.3125 L 88.566406 68.316406 L 88.566406 68.324219 C 88.582031 68.402344 88.59375 68.464844 88.609375 68.523438 C 88.804688 69.105469 89.03125 69.714844 89.347656 70.269531 L 89.390625 70.332031 L 89.414062 70.320312 L 89.410156 70.316406 C 89.269531 70.085938 89.148438 69.84375 89.046875 69.601562 Z M 95.453125 76.761719 C 95.398438 76.773438 95.355469 76.785156 95.316406 76.796875 C 95.121094 76.878906 94.90625 76.902344 94.699219 76.929688 C 94.574219 76.941406 94.441406 76.957031 94.3125 76.988281 C 94.257812 77.007812 94.199219 77.023438 94.132812 77.042969 L 94.128906 77.042969 L 94.132812 77.066406 L 94.136719 77.066406 C 94.546875 77.023438 94.878906 76.964844 95.1875 76.875 C 95.269531 76.847656 95.355469 76.820312 95.457031 76.785156 L 95.464844 76.785156 L 95.457031 76.761719 Z M 89.5 56.855469 C 89.359375 57.054688 89.214844 57.261719 89.152344 57.503906 C 89.117188 57.625 89.078125 57.75 89.046875 57.851562 L 89.042969 57.859375 L 89.066406 57.867188 L 89.070312 57.859375 C 89.207031 57.476562 89.355469 57.152344 89.519531 56.867188 L 89.523438 56.863281 L 89.503906 56.847656 Z M 91.113281 55.257812 C 91.097656 55.265625 91.078125 55.277344 91.054688 55.289062 C 90.960938 55.34375 90.867188 55.414062 90.75 55.511719 L 90.746094 55.515625 L 90.761719 55.535156 L 90.765625 55.53125 C 90.792969 55.511719 90.820312 55.492188 90.847656 55.472656 C 90.933594 55.40625 91.027344 55.34375 91.125 55.28125 L 91.128906 55.277344 L 91.117188 55.257812 Z M 103.324219 64.289062 C 103.324219 64.402344 103.304688 64.511719 103.285156 64.617188 C 103.273438 64.679688 103.261719 64.742188 103.253906 64.804688 C 103.230469 64.957031 103.226562 65.117188 103.222656 65.269531 L 103.222656 65.273438 C 103.21875 65.320312 103.21875 65.371094 103.214844 65.421875 C 103.210938 65.542969 103.191406 65.65625 103.171875 65.773438 L 103.171875 65.777344 C 103.15625 65.855469 103.144531 65.9375 103.132812 66.019531 C 103.125 66.109375 103.121094 66.199219 103.117188 66.285156 L 103.117188 66.289062 C 103.113281 66.398438 103.113281 66.511719 103.09375 66.625 C 103.078125 66.734375 103.042969 66.835938 103.007812 66.9375 L 103.003906 66.9375 C 102.988281 66.988281 102.96875 67.039062 102.953125 67.09375 C 102.914062 67.226562 102.886719 67.367188 102.859375 67.503906 C 102.828125 67.664062 102.796875 67.832031 102.738281 67.992188 C 102.691406 68.121094 102.636719 68.273438 102.59375 68.417969 C 102.585938 68.445312 102.605469 68.476562 102.625 68.492188 L 102.632812 68.5 L 102.628906 68.507812 C 102.617188 68.554688 102.601562 68.605469 102.589844 68.65625 C 102.554688 68.773438 102.519531 68.898438 102.480469 69.019531 C 102.261719 69.660156 102.027344 70.339844 101.753906 70.988281 L 101.75 70.992188 L 101.730469 70.988281 L 101.730469 70.980469 C 101.738281 70.941406 101.734375 70.914062 101.71875 70.90625 C 101.707031 70.902344 101.699219 70.898438 101.691406 70.902344 C 101.679688 70.90625 101.667969 70.917969 101.660156 70.933594 C 101.621094 71.027344 101.578125 71.117188 101.53125 71.203125 C 101.484375 71.292969 101.4375 71.386719 101.398438 71.484375 C 101.378906 71.539062 101.359375 71.597656 101.339844 71.65625 C 101.289062 71.8125 101.234375 71.972656 101.164062 72.121094 C 101.050781 72.332031 100.917969 72.5625 100.75 72.84375 C 100.695312 72.921875 100.636719 73.007812 100.570312 73.101562 C 100.476562 73.21875 100.382812 73.335938 100.289062 73.449219 L 100.28125 73.460938 C 100.15625 73.613281 100.027344 73.773438 99.902344 73.933594 C 99.832031 74.011719 99.757812 74.089844 99.675781 74.175781 C 99.628906 74.214844 99.578125 74.257812 99.535156 74.292969 C 99.472656 74.347656 99.402344 74.402344 99.34375 74.457031 C 99.128906 74.671875 98.886719 74.871094 98.609375 75.074219 C 98.535156 75.132812 98.464844 75.195312 98.394531 75.253906 L 98.390625 75.257812 C 98.355469 75.289062 98.324219 75.316406 98.289062 75.347656 C 98.101562 75.480469 97.90625 75.609375 97.703125 75.734375 C 97.519531 75.8125 97.347656 75.90625 97.183594 76 C 97 76.101562 96.8125 76.207031 96.613281 76.289062 C 96.515625 76.320312 96.417969 76.347656 96.320312 76.371094 C 96.234375 76.394531 96.144531 76.417969 96.058594 76.445312 C 95.996094 76.464844 95.9375 76.488281 95.878906 76.511719 L 95.875 76.515625 C 95.738281 76.570312 95.597656 76.625 95.445312 76.636719 C 95.253906 76.660156 95.070312 76.714844 94.890625 76.769531 C 94.691406 76.824219 94.484375 76.886719 94.273438 76.902344 C 94.191406 76.914062 94.109375 76.929688 94.03125 76.945312 C 93.960938 76.960938 93.882812 76.976562 93.808594 76.988281 C 93.78125 76.996094 93.730469 76.996094 93.671875 76.996094 C 93.550781 76.996094 93.402344 77 93.363281 77.054688 C 93.351562 77.066406 93.347656 77.085938 93.355469 77.105469 L 93.359375 77.121094 L 93.34375 77.121094 L 93.203125 77.128906 C 92.65625 77.183594 92.101562 77.191406 91.734375 77.191406 C 91.664062 77.191406 91.597656 77.191406 91.53125 77.1875 C 91.511719 77.1875 91.492188 77.183594 91.472656 77.183594 L 91.464844 77.183594 C 91.457031 77.183594 91.449219 77.183594 91.441406 77.183594 C 91.429688 77.1875 91.417969 77.1875 91.410156 77.183594 C 90.617188 77.035156 89.785156 76.804688 88.785156 76.46875 C 88.515625 76.363281 88.238281 76.238281 87.964844 76.097656 C 87.429688 75.824219 86.921875 75.507812 86.453125 75.15625 C 85.78125 74.632812 85.234375 73.964844 84.835938 73.441406 C 84.777344 73.367188 84.71875 73.289062 84.664062 73.207031 L 84.652344 73.195312 L 84.667969 73.191406 C 84.679688 73.183594 84.683594 73.175781 84.6875 73.167969 C 84.699219 73.121094 84.621094 73.027344 84.578125 72.972656 C 84.5625 72.953125 84.546875 72.9375 84.539062 72.921875 C 84.449219 72.789062 84.367188 72.644531 84.285156 72.507812 C 84.222656 72.402344 84.160156 72.292969 84.09375 72.191406 C 83.988281 72.019531 83.910156 71.835938 83.835938 71.65625 L 83.835938 71.652344 C 83.8125 71.601562 83.789062 71.546875 83.765625 71.492188 C 83.746094 71.449219 83.722656 71.40625 83.699219 71.363281 C 83.640625 71.257812 83.578125 71.144531 83.542969 71.019531 C 83.511719 70.882812 83.46875 70.722656 83.398438 70.578125 C 83.378906 70.542969 83.363281 70.503906 83.34375 70.472656 L 83.34375 70.46875 C 83.277344 70.34375 83.210938 70.214844 83.171875 70.070312 C 83.171875 70.066406 83.167969 70.054688 83.164062 70.046875 C 83.152344 70.011719 83.136719 69.976562 83.105469 69.980469 C 83.101562 69.980469 83.09375 69.980469 83.09375 69.996094 L 83.089844 70.066406 L 83.070312 70 C 82.953125 69.652344 82.835938 69.269531 82.71875 68.835938 C 82.605469 68.441406 82.527344 68.03125 82.457031 67.632812 L 82.453125 67.628906 C 82.421875 67.449219 82.386719 67.261719 82.351562 67.078125 C 82.175781 66.242188 82.101562 65.339844 82.117188 64.238281 C 82.097656 62.828125 82.1875 61.675781 82.394531 60.609375 C 82.410156 60.511719 82.425781 60.414062 82.441406 60.316406 C 82.542969 59.6875 82.648438 59.039062 82.824219 58.417969 C 82.859375 58.289062 82.898438 58.164062 82.933594 58.039062 C 82.96875 57.921875 83.003906 57.804688 83.035156 57.6875 C 83.042969 57.664062 83.046875 57.640625 83.054688 57.617188 L 83.058594 57.597656 L 83.074219 57.609375 C 83.074219 57.609375 83.078125 57.609375 83.078125 57.613281 C 83.078125 57.613281 83.082031 57.613281 83.082031 57.613281 C 83.105469 57.613281 83.121094 57.585938 83.125 57.566406 C 83.136719 57.503906 83.152344 57.421875 83.1875 57.339844 C 83.261719 57.183594 83.316406 57.019531 83.371094 56.859375 C 83.417969 56.730469 83.460938 56.59375 83.519531 56.464844 C 83.5625 56.378906 83.613281 56.292969 83.660156 56.210938 C 83.71875 56.117188 83.773438 56.023438 83.824219 55.921875 C 83.847656 55.867188 83.871094 55.8125 83.890625 55.765625 C 83.929688 55.667969 83.972656 55.570312 84.019531 55.476562 C 84.050781 55.425781 84.085938 55.375 84.121094 55.324219 C 84.1875 55.21875 84.257812 55.113281 84.3125 55 C 84.359375 54.902344 84.402344 54.796875 84.453125 54.65625 C 84.519531 54.5 84.621094 54.34375 84.773438 54.167969 C 84.820312 54.109375 84.875 54.054688 84.925781 54 C 85 53.917969 85.078125 53.835938 85.144531 53.75 C 85.203125 53.675781 85.257812 53.597656 85.3125 53.519531 C 85.382812 53.414062 85.460938 53.304688 85.546875 53.207031 C 85.609375 53.144531 85.675781 53.085938 85.738281 53.027344 C 85.808594 52.964844 85.878906 52.902344 85.945312 52.835938 C 85.996094 52.785156 86.042969 52.730469 86.089844 52.679688 C 86.144531 52.613281 86.199219 52.550781 86.265625 52.492188 C 86.496094 52.289062 86.730469 52.085938 86.957031 51.886719 L 87.179688 51.695312 C 87.359375 51.550781 87.558594 51.433594 87.753906 51.320312 C 87.921875 51.226562 88.09375 51.125 88.253906 51.007812 C 88.355469 50.960938 88.460938 50.914062 88.5625 50.871094 C 88.734375 50.800781 88.910156 50.722656 89.074219 50.632812 C 89.121094 50.609375 89.167969 50.582031 89.214844 50.558594 C 89.28125 50.519531 89.351562 50.480469 89.421875 50.453125 C 89.507812 50.417969 89.601562 50.398438 89.691406 50.382812 C 89.734375 50.375 89.777344 50.367188 89.820312 50.355469 C 89.925781 50.332031 90.03125 50.296875 90.132812 50.261719 C 90.253906 50.21875 90.375 50.175781 90.503906 50.15625 C 90.605469 50.140625 90.707031 50.121094 90.804688 50.097656 C 90.960938 50.0625 91.117188 50.03125 91.277344 50.027344 C 91.359375 50.019531 91.4375 50.019531 91.515625 50.015625 C 91.585938 50.015625 91.660156 50.011719 91.734375 50.007812 C 91.824219 49.996094 91.910156 49.976562 91.996094 49.960938 C 92.082031 49.941406 92.171875 49.921875 92.265625 49.914062 C 92.320312 49.90625 92.378906 49.90625 92.4375 49.90625 L 92.449219 49.90625 C 92.476562 49.90625 92.503906 49.90625 92.53125 49.90625 C 92.546875 49.90625 92.554688 49.882812 92.554688 49.867188 C 92.554688 49.859375 92.554688 49.855469 92.550781 49.847656 L 92.546875 49.832031 L 92.5625 49.832031 C 92.878906 49.8125 93.402344 49.855469 93.714844 49.882812 C 93.847656 49.894531 93.945312 49.902344 93.980469 49.902344 L 93.984375 49.902344 C 94.273438 49.933594 94.558594 50 94.832031 50.066406 C 95.011719 50.109375 95.199219 50.15625 95.386719 50.191406 L 95.410156 50.195312 C 95.765625 50.261719 96.132812 50.332031 96.480469 50.449219 C 96.886719 50.597656 97.226562 50.722656 97.558594 50.890625 C 97.929688 51.097656 98.355469 51.351562 98.746094 51.675781 L 98.75 51.683594 C 98.753906 51.683594 98.757812 51.6875 98.757812 51.6875 C 99.914062 52.632812 100.835938 53.71875 101.503906 54.910156 C 101.585938 55.050781 101.660156 55.199219 101.730469 55.34375 C 101.769531 55.421875 101.808594 55.503906 101.847656 55.585938 C 101.851562 55.59375 101.855469 55.601562 101.855469 55.609375 C 101.859375 55.613281 101.859375 55.617188 101.863281 55.621094 C 101.867188 55.625 101.867188 55.628906 101.871094 55.632812 C 101.921875 55.644531 101.9375 55.714844 101.953125 55.773438 C 101.960938 55.804688 101.96875 55.832031 101.976562 55.851562 C 102.03125 56.003906 102.097656 56.148438 102.164062 56.289062 C 102.261719 56.492188 102.359375 56.703125 102.414062 56.929688 C 102.476562 57.1875 102.554688 57.441406 102.632812 57.6875 L 102.636719 57.699219 C 102.664062 57.785156 102.6875 57.871094 102.714844 57.960938 C 102.820312 58.371094 102.941406 58.859375 103.039062 59.355469 L 103.042969 59.378906 L 103.019531 59.367188 C 103.007812 59.363281 103 59.359375 102.988281 59.359375 C 102.964844 59.359375 102.957031 59.378906 102.957031 59.398438 C 102.984375 59.542969 103.003906 59.691406 103.019531 59.832031 C 103.023438 59.980469 103.058594 60.128906 103.089844 60.269531 C 103.125 60.40625 103.160156 60.550781 103.164062 60.699219 C 103.160156 60.90625 103.183594 61.113281 103.210938 61.316406 C 103.226562 61.429688 103.238281 61.546875 103.25 61.664062 C 103.25 61.878906 103.269531 62.09375 103.289062 62.300781 L 103.289062 62.304688 C 103.304688 62.472656 103.320312 62.644531 103.324219 62.816406 C 103.320312 62.953125 103.3125 63.089844 103.304688 63.222656 L 103.304688 63.230469 C 103.296875 63.332031 103.289062 63.4375 103.285156 63.539062 C 103.28125 63.683594 103.292969 63.828125 103.304688 63.96875 C 103.316406 64.074219 103.324219 64.179688 103.324219 64.289062 Z M 97.46875 62.65625 C 97.476562 62.507812 97.457031 62.359375 97.433594 62.21875 L 97.433594 62.210938 C 97.425781 62.171875 97.421875 62.136719 97.417969 62.097656 C 97.402344 61.929688 97.394531 61.761719 97.386719 61.597656 C 97.378906 61.359375 97.367188 61.113281 97.339844 60.875 C 97.332031 60.855469 97.328125 60.832031 97.328125 60.808594 C 97.324219 60.757812 97.320312 60.710938 97.28125 60.703125 C 97.28125 60.703125 97.28125 60.703125 97.277344 60.703125 C 97.277344 60.707031 97.277344 60.707031 97.273438 60.707031 L 97.257812 60.710938 L 97.257812 60.695312 C 97.222656 60.300781 97.183594 59.972656 97.140625 59.667969 C 97.035156 59.105469 96.851562 58.550781 96.675781 58.015625 C 96.640625 57.90625 96.605469 57.800781 96.570312 57.691406 C 96.429688 57.234375 96.1875 56.824219 95.96875 56.480469 C 95.832031 56.265625 95.703125 56.085938 95.574219 55.929688 L 95.5625 55.914062 L 95.578125 55.910156 C 95.601562 55.898438 95.628906 55.878906 95.625 55.851562 C 95.609375 55.773438 95.539062 55.71875 95.46875 55.664062 C 95.453125 55.652344 95.4375 55.640625 95.425781 55.628906 C 95.382812 55.597656 95.34375 55.566406 95.300781 55.53125 C 95.25 55.488281 95.191406 55.441406 95.132812 55.398438 C 95.039062 55.335938 94.933594 55.289062 94.835938 55.242188 C 94.804688 55.230469 94.777344 55.214844 94.746094 55.203125 C 94.6875 55.167969 94.625 55.132812 94.558594 55.105469 C 94.519531 55.078125 94.476562 55.054688 94.4375 55.027344 C 94.367188 54.980469 94.296875 54.933594 94.21875 54.898438 C 93.886719 54.757812 93.53125 54.6875 93.226562 54.636719 C 93.023438 54.601562 92.820312 54.65625 92.625 54.707031 C 92.539062 54.730469 92.457031 54.753906 92.371094 54.769531 L 92.359375 54.769531 C 92.351562 54.769531 92.347656 54.769531 92.339844 54.769531 C 92.332031 54.769531 92.328125 54.769531 92.320312 54.769531 C 92.316406 54.773438 92.308594 54.777344 92.304688 54.78125 L 92.300781 54.78125 L 92.28125 54.785156 C 92.269531 54.789062 92.253906 54.789062 92.238281 54.792969 L 92.230469 54.792969 C 92.214844 54.792969 92.199219 54.792969 92.1875 54.796875 C 92.113281 54.808594 92.035156 54.828125 91.953125 54.855469 C 91.667969 54.925781 91.4375 55.011719 91.234375 55.117188 C 91.160156 55.15625 91.09375 55.203125 91.027344 55.25 C 91.007812 55.261719 90.992188 55.273438 90.976562 55.285156 C 90.90625 55.332031 90.839844 55.375 90.769531 55.417969 C 90.617188 55.511719 90.460938 55.605469 90.320312 55.730469 C 90.296875 55.753906 90.269531 55.78125 90.246094 55.804688 C 90.015625 56.019531 89.78125 56.242188 89.605469 56.503906 C 89.546875 56.589844 89.5 56.6875 89.453125 56.777344 C 89.402344 56.882812 89.351562 56.988281 89.285156 57.082031 C 89.121094 57.296875 89.011719 57.503906 88.953125 57.714844 C 88.925781 57.792969 88.90625 57.871094 88.886719 57.949219 C 88.855469 58.078125 88.824219 58.210938 88.769531 58.332031 C 88.769531 58.339844 88.765625 58.34375 88.761719 58.351562 C 88.75 58.382812 88.734375 58.414062 88.75 58.433594 L 88.753906 58.4375 L 88.75 58.445312 C 88.734375 58.492188 88.71875 58.539062 88.703125 58.585938 C 88.664062 58.707031 88.621094 58.832031 88.589844 58.957031 C 88.554688 59.140625 88.523438 59.3125 88.460938 59.476562 C 88.355469 59.730469 88.332031 60 88.3125 60.265625 C 88.304688 60.378906 88.296875 60.496094 88.277344 60.609375 C 88.257812 60.757812 88.226562 60.90625 88.199219 61.050781 C 88.175781 61.152344 88.15625 61.257812 88.136719 61.363281 C 88.121094 61.472656 88.121094 61.585938 88.125 61.695312 C 88.128906 61.765625 88.128906 61.839844 88.128906 61.914062 C 88.125 62.011719 88.113281 62.113281 88.105469 62.214844 C 88.089844 62.367188 88.078125 62.523438 88.085938 62.679688 C 88.09375 62.808594 88.082031 62.933594 88.070312 63.058594 C 88.058594 63.152344 88.050781 63.246094 88.050781 63.34375 C 88.046875 63.429688 88.054688 63.519531 88.058594 63.605469 C 88.066406 63.722656 88.074219 63.839844 88.066406 63.957031 C 88.058594 64.023438 88.046875 64.089844 88.035156 64.15625 C 88.023438 64.234375 88.007812 64.316406 88.003906 64.394531 C 87.992188 64.527344 88 64.652344 88.007812 64.777344 C 88.015625 64.894531 88.023438 65.011719 88.015625 65.132812 C 87.984375 65.386719 87.996094 65.660156 88.042969 65.96875 C 88.058594 66.09375 88.070312 66.222656 88.078125 66.34375 L 88.078125 66.347656 C 88.101562 66.617188 88.121094 66.894531 88.191406 67.164062 C 88.242188 67.488281 88.308594 67.835938 88.4375 68.164062 C 88.519531 68.363281 88.570312 68.578125 88.617188 68.785156 C 88.664062 68.980469 88.710938 69.179688 88.789062 69.371094 C 88.847656 69.515625 88.933594 69.652344 89.011719 69.785156 C 89.089844 69.910156 89.171875 70.042969 89.234375 70.1875 C 89.328125 70.414062 89.4375 70.652344 89.621094 70.851562 C 89.707031 70.933594 89.789062 71.027344 89.867188 71.117188 C 89.964844 71.226562 90.0625 71.335938 90.171875 71.4375 C 90.265625 71.515625 90.367188 71.585938 90.46875 71.65625 C 90.546875 71.710938 90.625 71.761719 90.699219 71.820312 C 90.984375 72.054688 91.324219 72.222656 91.65625 72.296875 C 91.671875 72.296875 91.695312 72.296875 91.707031 72.28125 C 91.714844 72.269531 91.714844 72.25 91.703125 72.230469 L 91.691406 72.203125 L 91.71875 72.210938 C 92.230469 72.347656 92.777344 72.371094 93.300781 72.285156 C 93.867188 72.167969 94.472656 71.878906 95 71.476562 C 95.351562 71.171875 95.59375 70.765625 95.828125 70.371094 C 95.859375 70.320312 95.890625 70.269531 95.921875 70.21875 C 96.257812 69.648438 96.527344 69.085938 96.71875 68.542969 C 96.808594 68.269531 96.894531 67.96875 96.980469 67.628906 L 96.980469 67.621094 L 96.988281 67.617188 C 97.007812 67.613281 97.03125 67.589844 97.035156 67.566406 C 97.074219 67.4375 97.105469 67.300781 97.136719 67.167969 C 97.265625 66.742188 97.324219 66.386719 97.316406 66.042969 C 97.328125 65.933594 97.335938 65.820312 97.34375 65.710938 L 97.347656 65.703125 C 97.367188 65.453125 97.390625 65.195312 97.40625 64.941406 C 97.417969 64.777344 97.414062 64.609375 97.410156 64.445312 C 97.40625 64.234375 97.402344 64.015625 97.429688 63.804688 C 97.457031 63.59375 97.457031 63.378906 97.453125 63.175781 C 97.453125 63.007812 97.453125 62.832031 97.46875 62.65625 Z M 97.46875 62.65625 " fill-opacity="1" fill-rule="nonzero"/></g><g clip-path="url(#60f9cd3502)"><path fill="#fffffd" d="M 89.222656 70.191406 C 89.097656 69.902344 88.894531 69.664062 88.777344 69.375 C 88.621094 68.984375 88.585938 68.558594 88.425781 68.167969 C 88.296875 67.847656 88.230469 67.503906 88.179688 67.164062 C 88.078125 66.773438 88.078125 66.367188 88.03125 65.972656 C 87.988281 65.695312 87.96875 65.414062 88 65.132812 C 88.019531 64.878906 87.96875 64.644531 87.992188 64.394531 C 88 64.25 88.039062 64.097656 88.050781 63.953125 C 88.070312 63.75 88.03125 63.546875 88.035156 63.34375 C 88.039062 63.121094 88.089844 62.902344 88.074219 62.683594 C 88.058594 62.421875 88.105469 62.167969 88.113281 61.910156 C 88.125 61.726562 88.09375 61.542969 88.125 61.359375 C 88.167969 61.109375 88.234375 60.863281 88.265625 60.609375 C 88.320312 60.226562 88.296875 59.835938 88.449219 59.472656 C 88.511719 59.300781 88.546875 59.128906 88.578125 58.953125 C 88.621094 58.777344 88.683594 58.609375 88.738281 58.441406 C 88.71875 58.414062 88.742188 58.367188 88.757812 58.328125 C 88.84375 58.128906 88.875 57.914062 88.9375 57.710938 C 89.007812 57.480469 89.128906 57.265625 89.273438 57.074219 C 89.402344 56.894531 89.472656 56.679688 89.59375 56.496094 C 89.792969 56.203125 90.058594 55.964844 90.3125 55.722656 C 90.515625 55.542969 90.75 55.421875 90.96875 55.277344 C 91.058594 55.214844 91.136719 55.152344 91.230469 55.105469 C 91.457031 54.984375 91.699219 54.902344 91.949219 54.84375 C 92.042969 54.820312 92.140625 54.800781 92.238281 54.78125 C 92.257812 54.777344 92.277344 54.773438 92.296875 54.769531 C 92.320312 54.765625 92.339844 54.761719 92.359375 54.757812 C 92.363281 54.757812 92.367188 54.757812 92.371094 54.757812 C 92.652344 54.703125 92.9375 54.574219 93.230469 54.625 C 93.566406 54.679688 93.910156 54.753906 94.222656 54.886719 C 94.34375 54.945312 94.449219 55.027344 94.566406 55.09375 C 94.582031 55.101562 94.597656 55.113281 94.617188 55.121094 C 94.660156 55.148438 94.707031 55.171875 94.753906 55.191406 C 94.882812 55.253906 95.019531 55.308594 95.140625 55.390625 C 95.242188 55.460938 95.332031 55.546875 95.433594 55.621094 C 95.511719 55.683594 95.617188 55.746094 95.636719 55.851562 C 95.640625 55.882812 95.613281 55.910156 95.582031 55.921875 C 95.558594 55.929688 95.53125 55.929688 95.511719 55.910156 C 95.492188 55.878906 95.464844 55.847656 95.4375 55.820312 C 95.390625 55.777344 95.335938 55.738281 95.285156 55.691406 C 94.96875 55.390625 94.5625 55.195312 94.160156 55.035156 C 93.972656 54.96875 93.792969 54.878906 93.601562 54.828125 C 93.292969 54.785156 92.976562 54.746094 92.664062 54.773438 C 92.300781 54.820312 91.964844 54.976562 91.617188 55.082031 C 91.449219 55.136719 91.277344 55.1875 91.117188 55.269531 C 91.101562 55.28125 91.082031 55.289062 91.0625 55.300781 C 90.953125 55.363281 90.855469 55.441406 90.757812 55.523438 C 90.679688 55.589844 90.601562 55.660156 90.523438 55.730469 C 90.339844 55.898438 90.125 56.042969 89.964844 56.234375 C 89.851562 56.375 89.742188 56.527344 89.640625 56.671875 C 89.597656 56.738281 89.554688 56.796875 89.511719 56.859375 C 89.367188 57.0625 89.226562 57.265625 89.164062 57.507812 C 89.132812 57.625 89.09375 57.738281 89.058594 57.855469 C 89.011719 58.003906 88.960938 58.148438 88.914062 58.292969 C 88.910156 58.304688 88.90625 58.316406 88.902344 58.328125 C 88.90625 58.34375 88.90625 58.355469 88.902344 58.371094 C 88.8125 58.632812 88.738281 58.902344 88.65625 59.171875 C 88.597656 59.386719 88.5625 59.609375 88.542969 59.832031 C 88.511719 60.089844 88.417969 60.34375 88.363281 60.597656 C 88.292969 60.972656 88.347656 61.359375 88.277344 61.730469 C 88.175781 62.136719 88.207031 62.550781 88.207031 62.960938 C 88.210938 63.265625 88.140625 63.566406 88.136719 63.871094 C 88.144531 64.578125 88.144531 65.285156 88.136719 65.996094 C 88.132812 66.03125 88.132812 66.066406 88.132812 66.097656 C 88.136719 66.234375 88.15625 66.363281 88.183594 66.492188 C 88.207031 66.609375 88.238281 66.722656 88.265625 66.839844 C 88.328125 67.15625 88.339844 67.476562 88.460938 67.777344 C 88.523438 67.960938 88.546875 68.140625 88.578125 68.320312 C 88.589844 68.386719 88.601562 68.453125 88.621094 68.519531 C 88.820312 69.117188 89.042969 69.714844 89.355469 70.261719 C 89.371094 70.28125 89.382812 70.300781 89.398438 70.320312 C 89.652344 70.679688 89.902344 71.046875 90.242188 71.328125 C 90.527344 71.613281 90.835938 71.863281 91.203125 72.023438 C 91.335938 72.078125 91.472656 72.140625 91.605469 72.167969 C 91.621094 72.171875 91.636719 72.175781 91.652344 72.179688 C 91.679688 72.179688 91.703125 72.199219 91.714844 72.222656 C 91.738281 72.265625 91.726562 72.316406 91.652344 72.308594 C 91.304688 72.230469 90.96875 72.058594 90.691406 71.832031 C 90.519531 71.695312 90.328125 71.589844 90.164062 71.445312 C 89.964844 71.265625 89.804688 71.046875 89.613281 70.859375 C 89.433594 70.667969 89.320312 70.433594 89.222656 70.191406 Z M 97.222656 60.851562 C 97.273438 61.195312 97.273438 61.554688 97.332031 61.898438 C 97.355469 62.191406 97.332031 62.484375 97.34375 62.78125 C 97.355469 62.949219 97.355469 63.117188 97.332031 63.289062 C 97.304688 63.570312 97.316406 63.851562 97.34375 64.132812 C 97.367188 64.355469 97.3125 64.582031 97.296875 64.804688 C 97.253906 65.128906 97.265625 65.449219 97.277344 65.773438 C 97.273438 66.011719 97.207031 66.253906 97.167969 66.492188 C 97.121094 66.753906 97.089844 67.015625 97 67.269531 C 96.988281 67.355469 96.859375 67.578125 96.960938 67.628906 C 96.972656 67.632812 96.980469 67.632812 96.992188 67.628906 C 97.019531 67.625 97.039062 67.597656 97.046875 67.570312 C 97.085938 67.4375 97.121094 67.304688 97.148438 67.171875 C 97.261719 66.804688 97.335938 66.429688 97.332031 66.042969 C 97.359375 65.675781 97.394531 65.308594 97.417969 64.941406 C 97.441406 64.566406 97.394531 64.183594 97.441406 63.804688 C 97.492188 63.421875 97.449219 63.046875 97.480469 62.65625 C 97.492188 62.464844 97.453125 62.285156 97.429688 62.097656 C 97.398438 61.691406 97.398438 61.277344 97.351562 60.871094 C 97.332031 60.820312 97.355469 60.699219 97.28125 60.691406 C 97.277344 60.691406 97.273438 60.695312 97.269531 60.695312 C 97.207031 60.714844 97.214844 60.800781 97.222656 60.851562 Z M 101.722656 70.894531 C 101.691406 70.875 101.660156 70.902344 101.648438 70.929688 C 101.574219 71.121094 101.460938 71.289062 101.386719 71.480469 C 101.3125 71.691406 101.25 71.914062 101.152344 72.117188 C 101.023438 72.355469 100.882812 72.597656 100.738281 72.835938 C 100.710938 72.882812 100.683594 72.925781 100.65625 72.972656 C 100.625 73.011719 100.59375 73.054688 100.558594 73.09375 C 100.339844 73.371094 100.113281 73.644531 99.894531 73.925781 C 99.875 73.949219 99.855469 73.972656 99.839844 73.996094 C 99.785156 74.058594 99.726562 74.113281 99.667969 74.167969 C 99.558594 74.261719 99.4375 74.351562 99.332031 74.449219 C 99.105469 74.675781 98.859375 74.875 98.601562 75.0625 C 98.492188 75.152344 98.386719 75.246094 98.28125 75.335938 C 98.101562 75.488281 97.917969 75.632812 97.695312 75.722656 C 97.320312 75.882812 96.988281 76.121094 96.609375 76.277344 C 96.425781 76.339844 96.238281 76.375 96.054688 76.433594 C 95.851562 76.503906 95.660156 76.609375 95.445312 76.625 C 95.042969 76.671875 94.675781 76.859375 94.269531 76.890625 C 94.117188 76.914062 93.964844 76.953125 93.808594 76.976562 C 93.707031 77 93.296875 76.941406 93.34375 77.109375 C 93.34375 77.121094 93.347656 77.128906 93.355469 77.140625 C 93.371094 77.160156 93.394531 77.15625 93.421875 77.15625 C 93.65625 77.144531 93.902344 77.113281 94.136719 77.054688 C 94.199219 77.039062 94.257812 77.019531 94.316406 77 C 94.652344 76.925781 95 76.941406 95.320312 76.808594 C 95.363281 76.792969 95.410156 76.785156 95.453125 76.773438 C 95.582031 76.746094 95.722656 76.734375 95.847656 76.699219 C 96.039062 76.648438 96.210938 76.550781 96.390625 76.464844 C 96.855469 76.265625 97.355469 76.128906 97.773438 75.828125 C 98.046875 75.625 98.328125 75.4375 98.613281 75.253906 C 98.859375 75.082031 99.054688 74.863281 99.292969 74.679688 C 99.554688 74.472656 99.769531 74.21875 99.96875 73.953125 C 100.082031 73.824219 100.21875 73.726562 100.339844 73.597656 C 100.4375 73.488281 100.515625 73.363281 100.605469 73.246094 C 100.832031 72.945312 101.046875 72.628906 101.175781 72.273438 C 101.292969 71.925781 101.476562 71.597656 101.625 71.261719 C 101.636719 71.210938 101.722656 71.078125 101.742188 70.984375 C 101.75 70.941406 101.75 70.910156 101.722656 70.894531 Z M 102.945312 59.398438 C 102.972656 59.542969 102.992188 59.6875 103.007812 59.835938 C 103.015625 60.128906 103.140625 60.40625 103.152344 60.699219 C 103.144531 61.023438 103.210938 61.34375 103.238281 61.664062 C 103.238281 62.050781 103.300781 62.429688 103.3125 62.816406 C 103.300781 63.058594 103.285156 63.296875 103.273438 63.539062 C 103.265625 63.792969 103.308594 64.039062 103.3125 64.289062 C 103.3125 64.464844 103.261719 64.632812 103.242188 64.804688 C 103.210938 65.007812 103.210938 65.214844 103.203125 65.421875 C 103.191406 65.625 103.144531 65.8125 103.121094 66.019531 C 103.101562 66.21875 103.113281 66.421875 103.082031 66.621094 C 103.058594 66.785156 102.988281 66.933594 102.941406 67.089844 C 102.851562 67.382812 102.832031 67.695312 102.726562 67.988281 C 102.679688 68.125 102.625 68.273438 102.578125 68.414062 C 102.570312 68.445312 102.589844 68.480469 102.617188 68.503906 C 102.625 68.507812 102.628906 68.511719 102.636719 68.515625 C 102.664062 68.527344 102.710938 68.53125 102.722656 68.492188 C 102.765625 68.378906 102.800781 68.261719 102.835938 68.144531 C 102.902344 67.871094 103 67.609375 103.042969 67.332031 C 103.089844 66.996094 103.164062 66.664062 103.238281 66.332031 C 103.285156 66.050781 103.296875 65.765625 103.335938 65.480469 C 103.394531 65.179688 103.382812 64.871094 103.382812 64.5625 C 103.402344 64.144531 103.441406 63.710938 103.429688 63.289062 C 103.425781 63.070312 103.390625 62.851562 103.390625 62.632812 C 103.402344 62.378906 103.449219 62.121094 103.40625 61.867188 C 103.335938 61.554688 103.347656 61.238281 103.308594 60.921875 C 103.234375 60.527344 103.144531 60.136719 103.125 59.734375 C 103.109375 59.644531 103.125 59.410156 103.027344 59.355469 C 103.015625 59.351562 103.003906 59.347656 102.988281 59.347656 C 102.960938 59.347656 102.945312 59.371094 102.945312 59.398438 Z M 83.136719 57.570312 C 83.152344 57.492188 83.167969 57.417969 83.199219 57.347656 C 83.335938 57.0625 83.40625 56.757812 83.53125 56.46875 C 83.621094 56.285156 83.746094 56.117188 83.832031 55.925781 C 83.898438 55.777344 83.957031 55.628906 84.03125 55.484375 C 84.128906 55.328125 84.242188 55.175781 84.320312 55.007812 C 84.378906 54.894531 84.421875 54.777344 84.464844 54.660156 C 84.539062 54.480469 84.65625 54.320312 84.78125 54.175781 C 84.902344 54.035156 85.039062 53.90625 85.15625 53.757812 C 85.296875 53.582031 85.402344 53.382812 85.554688 53.21875 C 85.679688 53.085938 85.828125 52.976562 85.953125 52.84375 C 86.066406 52.734375 86.15625 52.605469 86.273438 52.5 C 86.578125 52.234375 86.882812 51.96875 87.1875 51.703125 C 87.519531 51.4375 87.914062 51.273438 88.261719 51.019531 C 88.53125 50.890625 88.816406 50.789062 89.082031 50.640625 C 89.199219 50.585938 89.304688 50.511719 89.429688 50.464844 C 89.550781 50.410156 89.691406 50.398438 89.824219 50.367188 C 90.054688 50.316406 90.269531 50.207031 90.507812 50.167969 C 90.761719 50.132812 91.015625 50.042969 91.277344 50.039062 C 91.429688 50.023438 91.582031 50.03125 91.734375 50.019531 C 91.917969 49.996094 92.082031 49.945312 92.265625 49.925781 C 92.355469 49.914062 92.445312 49.917969 92.53125 49.917969 C 92.554688 49.917969 92.570312 49.886719 92.570312 49.867188 C 92.570312 49.855469 92.566406 49.851562 92.5625 49.84375 C 92.554688 49.824219 92.53125 49.816406 92.5 49.820312 C 92.230469 49.800781 91.953125 49.804688 91.679688 49.8125 C 91.324219 49.878906 90.976562 49.964844 90.613281 50 C 90.136719 50.082031 89.679688 50.25 89.238281 50.449219 C 88.859375 50.558594 88.503906 50.742188 88.152344 50.917969 C 87.925781 51.050781 87.695312 51.179688 87.492188 51.351562 C 87.332031 51.511719 87.136719 51.621094 86.949219 51.742188 C 86.726562 51.878906 86.554688 52.074219 86.363281 52.246094 C 86.210938 52.367188 86.042969 52.480469 85.929688 52.648438 C 85.816406 52.777344 85.734375 52.917969 85.617188 53.042969 C 85.390625 53.265625 85.175781 53.496094 84.972656 53.742188 C 84.71875 54.019531 84.546875 54.355469 84.351562 54.675781 C 84.167969 54.9375 84.023438 55.230469 83.878906 55.519531 C 83.707031 55.804688 83.59375 56.128906 83.453125 56.433594 C 83.367188 56.605469 83.292969 56.78125 83.234375 56.964844 C 83.195312 57.082031 82.929688 57.527344 83.066406 57.617188 C 83.070312 57.621094 83.074219 57.625 83.078125 57.625 C 83.109375 57.628906 83.132812 57.597656 83.136719 57.570312 Z M 84.550781 72.917969 C 84.390625 72.679688 84.257812 72.425781 84.105469 72.183594 C 83.96875 71.964844 83.878906 71.722656 83.777344 71.488281 C 83.699219 71.332031 83.605469 71.1875 83.558594 71.015625 C 83.519531 70.863281 83.476562 70.710938 83.410156 70.570312 C 83.328125 70.40625 83.230469 70.25 83.1875 70.070312 C 83.167969 70.03125 83.160156 69.960938 83.101562 69.96875 C 83.085938 69.96875 83.082031 69.984375 83.082031 69.996094 C 83.082031 70.003906 83.082031 70.007812 83.082031 70.015625 C 83.214844 70.535156 83.421875 71.035156 83.640625 71.527344 C 83.734375 71.785156 83.914062 71.992188 84.035156 72.234375 C 84.191406 72.542969 84.34375 72.855469 84.5625 73.125 C 84.582031 73.160156 84.597656 73.203125 84.648438 73.207031 C 84.65625 73.207031 84.664062 73.203125 84.671875 73.199219 C 84.769531 73.15625 84.589844 72.976562 84.550781 72.917969 Z M 84.550781 72.917969 " fill-opacity="1" fill-rule="nonzero"/></g></svg>