<svg xmlns="http://www.w3.org/2000/svg" xmlns:xlink="http://www.w3.org/1999/xlink" width="250" zoomAndPan="magnify" viewBox="0 0 187.5 149.999998" height="200" preserveAspectRatio="xMidYMid meet" version="1.0"><defs><clipPath id="08775d6070"><path d="M 21.988281 3.488281 L 164.859375 3.488281 L 164.859375 146.355469 L 21.988281 146.355469 Z M 21.988281 3.488281 " clip-rule="nonzero"/></clipPath><clipPath id="752f6e0412"><path d="M 82.09375 49.527344 L 104.535156 49.527344 L 104.535156 77.953125 L 82.09375 77.953125 Z M 82.09375 49.527344 " clip-rule="nonzero"/></clipPath><clipPath id="a363641e78"><path d="M 87 51 L 104.535156 51 L 104.535156 77.953125 L 87 77.953125 Z M 87 51 " clip-rule="nonzero"/></clipPath><clipPath id="225a90aeca"><path d="M 82.09375 49.527344 L 104 49.527344 L 104 77 L 82.09375 77 Z M 82.09375 49.527344 " clip-rule="nonzero"/></clipPath><clipPath id="318078e896"><path d="M 83 49.527344 L 104 49.527344 L 104 77 L 83 77 Z M 83 49.527344 " clip-rule="nonzero"/></clipPath></defs><g clip-path="url(#08775d6070)"><path fill="#437fa2" d="M 165.007812 75 C 165.007812 76.167969 164.980469 77.339844 164.921875 78.507812 C 164.867188 79.675781 164.78125 80.84375 164.664062 82.007812 C 164.550781 83.171875 164.40625 84.332031 164.234375 85.492188 C 164.0625 86.648438 163.863281 87.800781 163.636719 88.949219 C 163.40625 90.097656 163.152344 91.238281 162.867188 92.375 C 162.582031 93.507812 162.269531 94.636719 161.929688 95.757812 C 161.589844 96.875 161.222656 97.988281 160.828125 99.089844 C 160.433594 100.191406 160.015625 101.28125 159.566406 102.363281 C 159.117188 103.445312 158.644531 104.515625 158.144531 105.574219 C 157.644531 106.632812 157.117188 107.675781 156.566406 108.707031 C 156.015625 109.742188 155.4375 110.757812 154.835938 111.761719 C 154.234375 112.765625 153.609375 113.753906 152.957031 114.726562 C 152.308594 115.699219 151.632812 116.65625 150.9375 117.597656 C 150.238281 118.539062 149.519531 119.460938 148.777344 120.363281 C 148.035156 121.269531 147.269531 122.15625 146.484375 123.023438 C 145.699219 123.890625 144.890625 124.738281 144.066406 125.5625 C 143.238281 126.390625 142.390625 127.199219 141.523438 127.984375 C 140.65625 128.769531 139.769531 129.535156 138.863281 130.277344 C 137.960938 131.019531 137.039062 131.738281 136.097656 132.4375 C 135.15625 133.132812 134.203125 133.808594 133.226562 134.457031 C 132.253906 135.109375 131.265625 135.734375 130.261719 136.335938 C 129.257812 136.9375 128.242188 137.511719 127.207031 138.066406 C 126.175781 138.617188 125.132812 139.144531 124.074219 139.644531 C 123.015625 140.144531 121.945312 140.617188 120.863281 141.066406 C 119.785156 141.511719 118.691406 141.933594 117.589844 142.328125 C 116.488281 142.722656 115.378906 143.089844 114.257812 143.429688 C 113.136719 143.769531 112.011719 144.082031 110.875 144.367188 C 109.738281 144.648438 108.597656 144.90625 107.449219 145.136719 C 106.300781 145.363281 105.148438 145.5625 103.992188 145.734375 C 102.835938 145.90625 101.671875 146.050781 100.507812 146.164062 C 99.34375 146.28125 98.175781 146.367188 97.007812 146.421875 C 95.839844 146.480469 94.667969 146.507812 93.5 146.507812 C 92.328125 146.507812 91.160156 146.480469 89.992188 146.421875 C 88.820312 146.367188 87.65625 146.28125 86.488281 146.164062 C 85.324219 146.050781 84.164062 145.90625 83.007812 145.734375 C 81.847656 145.5625 80.695312 145.363281 79.546875 145.136719 C 78.398438 144.90625 77.257812 144.648438 76.125 144.367188 C 74.988281 144.082031 73.859375 143.769531 72.742188 143.429688 C 71.621094 143.089844 70.511719 142.722656 69.40625 142.328125 C 68.304688 141.933594 67.214844 141.511719 66.132812 141.066406 C 65.050781 140.617188 63.984375 140.144531 62.925781 139.644531 C 61.867188 139.144531 60.820312 138.617188 59.789062 138.066406 C 58.757812 137.511719 57.738281 136.9375 56.734375 136.335938 C 55.730469 135.734375 54.742188 135.109375 53.769531 134.457031 C 52.796875 133.808594 51.839844 133.132812 50.902344 132.4375 C 49.960938 131.738281 49.039062 131.019531 48.132812 130.277344 C 47.230469 129.535156 46.34375 128.769531 45.476562 127.984375 C 44.609375 127.199219 43.761719 126.390625 42.933594 125.5625 C 42.105469 124.738281 41.300781 123.890625 40.511719 123.023438 C 39.726562 122.15625 38.964844 121.269531 38.222656 120.363281 C 37.476562 119.460938 36.757812 118.539062 36.0625 117.597656 C 35.363281 116.65625 34.691406 115.699219 34.039062 114.726562 C 33.390625 113.753906 32.765625 112.765625 32.164062 111.761719 C 31.5625 110.757812 30.984375 109.742188 30.433594 108.707031 C 29.882812 107.675781 29.355469 106.632812 28.855469 105.574219 C 28.355469 104.515625 27.878906 103.445312 27.433594 102.363281 C 26.984375 101.28125 26.5625 100.191406 26.167969 99.089844 C 25.773438 97.988281 25.40625 96.875 25.066406 95.757812 C 24.726562 94.636719 24.417969 93.507812 24.132812 92.375 C 23.847656 91.238281 23.589844 90.097656 23.363281 88.949219 C 23.132812 87.800781 22.933594 86.648438 22.761719 85.492188 C 22.589844 84.332031 22.449219 83.171875 22.332031 82.007812 C 22.21875 80.84375 22.132812 79.675781 22.074219 78.507812 C 22.015625 77.339844 21.988281 76.167969 21.988281 75 C 21.988281 73.828125 22.015625 72.660156 22.074219 71.488281 C 22.132812 70.320312 22.21875 69.152344 22.332031 67.988281 C 22.449219 66.824219 22.589844 65.664062 22.761719 64.503906 C 22.933594 63.347656 23.132812 62.195312 23.363281 61.046875 C 23.589844 59.898438 23.847656 58.757812 24.132812 57.621094 C 24.417969 56.488281 24.726562 55.359375 25.066406 54.238281 C 25.40625 53.121094 25.773438 52.007812 26.167969 50.90625 C 26.5625 49.804688 26.984375 48.714844 27.433594 47.632812 C 27.878906 46.550781 28.355469 45.480469 28.855469 44.421875 C 29.355469 43.367188 29.882812 42.320312 30.433594 41.289062 C 30.984375 40.257812 31.5625 39.238281 32.164062 38.234375 C 32.765625 37.230469 33.390625 36.242188 34.039062 35.269531 C 34.691406 34.296875 35.363281 33.339844 36.0625 32.398438 C 36.757812 31.460938 37.476562 30.539062 38.222656 29.632812 C 38.964844 28.726562 39.726562 27.84375 40.511719 26.976562 C 41.300781 26.109375 42.105469 25.261719 42.933594 24.433594 C 43.761719 23.605469 44.609375 22.796875 45.476562 22.011719 C 46.34375 21.226562 47.230469 20.460938 48.132812 19.71875 C 49.039062 18.976562 49.960938 18.257812 50.902344 17.5625 C 51.839844 16.863281 52.796875 16.191406 53.769531 15.539062 C 54.742188 14.890625 55.730469 14.261719 56.734375 13.660156 C 57.738281 13.058594 58.757812 12.484375 59.789062 11.933594 C 60.820312 11.378906 61.867188 10.855469 62.925781 10.355469 C 63.984375 9.851562 65.050781 9.378906 66.132812 8.929688 C 67.214844 8.484375 68.304688 8.0625 69.40625 7.667969 C 70.511719 7.273438 71.621094 6.90625 72.742188 6.566406 C 73.859375 6.226562 74.988281 5.914062 76.125 5.632812 C 77.257812 5.347656 78.398438 5.089844 79.546875 4.863281 C 80.695312 4.632812 81.847656 4.433594 83.007812 4.261719 C 84.164062 4.089844 85.324219 3.945312 86.488281 3.832031 C 87.65625 3.71875 88.820312 3.632812 89.992188 3.574219 C 91.160156 3.515625 92.328125 3.488281 93.5 3.488281 C 94.667969 3.488281 95.839844 3.515625 97.007812 3.574219 C 98.175781 3.632812 99.34375 3.71875 100.507812 3.832031 C 101.671875 3.945312 102.835938 4.089844 103.992188 4.261719 C 105.148438 4.433594 106.300781 4.632812 107.449219 4.863281 C 108.597656 5.089844 109.738281 5.347656 110.875 5.632812 C 112.011719 5.914062 113.136719 6.226562 114.257812 6.566406 C 115.378906 6.90625 116.488281 7.273438 117.589844 7.667969 C 118.691406 8.0625 119.785156 8.484375 120.863281 8.929688 C 121.945312 9.378906 123.015625 9.851562 124.074219 10.355469 C 125.132812 10.855469 126.175781 11.378906 127.207031 11.933594 C 128.242188 12.484375 129.257812 13.058594 130.261719 13.660156 C 131.265625 14.261719 132.253906 14.890625 133.226562 15.539062 C 134.203125 16.191406 135.15625 16.863281 136.097656 17.5625 C 137.039062 18.257812 137.960938 18.976562 138.863281 19.71875 C 139.769531 20.460938 140.65625 21.226562 141.523438 22.011719 C 142.390625 22.796875 143.238281 23.605469 144.066406 24.433594 C 144.890625 25.261719 145.699219 26.109375 146.484375 26.976562 C 147.269531 27.84375 148.035156 28.726562 148.777344 29.632812 C 149.519531 30.539062 150.238281 31.460938 150.9375 32.398438 C 151.632812 33.339844 152.308594 34.296875 152.957031 35.269531 C 153.609375 36.242188 154.234375 37.230469 154.835938 38.234375 C 155.4375 39.238281 156.015625 40.257812 156.566406 41.289062 C 157.117188 42.320312 157.644531 43.367188 158.144531 44.421875 C 158.644531 45.480469 159.117188 46.550781 159.566406 47.632812 C 160.015625 48.714844 160.433594 49.804688 160.828125 50.90625 C 161.222656 52.007812 161.589844 53.121094 161.929688 54.238281 C 162.269531 55.359375 162.582031 56.488281 162.867188 57.621094 C 163.152344 58.757812 163.40625 59.898438 163.636719 61.046875 C 163.863281 62.195312 164.0625 63.347656 164.234375 64.503906 C 164.40625 65.664062 164.550781 66.824219 164.664062 67.988281 C 164.78125 69.152344 164.867188 70.320312 164.921875 71.488281 C 164.980469 72.660156 165.007812 73.828125 165.007812 75 Z M 165.007812 75 " fill-opacity="1" fill-rule="nonzero"/></g><path fill="#ffffff" d="M 116.78125 42.335938 L 116.78125 102.496094 L 96.542969 86.65625 L 93.5 84.289062 L 90.453125 86.65625 L 70.214844 102.496094 L 70.214844 42.335938 L 116.78125 42.335938 M 121.703125 37.414062 L 65.292969 37.414062 L 65.292969 112.582031 L 93.5 90.5 L 121.703125 112.582031 Z M 121.703125 37.414062 " fill-opacity="1" fill-rule="nonzero"/><g clip-path="url(#752f6e0412)"><path fill="#fffffd" d="M 104.804688 62.351562 L 104.796875 62.25 C 104.765625 61.773438 104.734375 61.28125 104.675781 60.800781 C 104.582031 60.117188 104.425781 59.445312 104.226562 58.652344 C 104.199219 58.5625 104.171875 58.472656 104.140625 58.386719 C 104.066406 58.140625 103.988281 57.882812 103.921875 57.625 C 103.871094 57.398438 103.769531 57.1875 103.675781 56.984375 C 103.609375 56.84375 103.542969 56.699219 103.488281 56.546875 C 103.476562 56.527344 103.46875 56.5 103.460938 56.46875 C 103.445312 56.410156 103.429688 56.34375 103.382812 56.332031 C 103.378906 56.328125 103.375 56.320312 103.375 56.316406 C 103.371094 56.3125 103.367188 56.308594 103.367188 56.304688 C 103.367188 56.296875 103.363281 56.289062 103.359375 56.28125 C 103.316406 56.203125 103.277344 56.121094 103.238281 56.039062 C 103.167969 55.898438 103.097656 55.746094 103.015625 55.605469 C 102.34375 54.410156 101.417969 53.324219 100.257812 52.375 C 99.871094 52.050781 99.441406 51.796875 99.074219 51.589844 C 98.976562 51.542969 98.871094 51.492188 98.753906 51.441406 C 98.753906 51.441406 98.75 51.4375 98.746094 51.4375 L 98.742188 51.429688 C 98.355469 51.109375 97.925781 50.851562 97.558594 50.644531 C 97.222656 50.476562 96.886719 50.351562 96.480469 50.203125 C 96.132812 50.085938 95.765625 50.015625 95.410156 49.949219 L 95.382812 49.945312 C 95.199219 49.910156 95.011719 49.867188 94.832031 49.824219 C 94.554688 49.757812 94.269531 49.6875 93.984375 49.65625 C 93.984375 49.65625 93.980469 49.65625 93.980469 49.65625 C 93.945312 49.65625 93.847656 49.648438 93.714844 49.636719 C 93.402344 49.613281 92.878906 49.566406 92.5625 49.585938 L 92.558594 49.585938 C 92.546875 49.570312 92.527344 49.566406 92.5 49.570312 C 92.230469 49.546875 91.953125 49.554688 91.679688 49.5625 C 91.324219 49.628906 90.976562 49.714844 90.613281 49.75 C 90.136719 49.828125 89.679688 50 89.238281 50.199219 C 88.859375 50.308594 88.503906 50.492188 88.152344 50.667969 C 87.925781 50.800781 87.695312 50.929688 87.492188 51.097656 C 87.332031 51.261719 87.136719 51.367188 86.949219 51.492188 C 86.726562 51.628906 86.554688 51.824219 86.363281 51.996094 C 86.210938 52.117188 86.042969 52.230469 85.929688 52.398438 C 85.816406 52.527344 85.734375 52.664062 85.617188 52.789062 C 85.390625 53.011719 85.175781 53.246094 84.972656 53.488281 C 84.71875 53.769531 84.546875 54.105469 84.351562 54.421875 C 84.167969 54.6875 84.023438 54.980469 83.878906 55.269531 C 83.707031 55.554688 83.59375 55.878906 83.453125 56.183594 C 83.367188 56.355469 83.292969 56.53125 83.234375 56.714844 C 83.195312 56.828125 82.941406 57.261719 83.0625 57.363281 L 83.058594 57.367188 C 83.054688 57.386719 83.046875 57.414062 83.042969 57.4375 C 83.011719 57.554688 82.972656 57.675781 82.941406 57.789062 C 82.902344 57.914062 82.863281 58.039062 82.832031 58.167969 C 82.652344 58.789062 82.550781 59.4375 82.449219 60.066406 C 82.433594 60.164062 82.417969 60.261719 82.402344 60.359375 C 82.191406 61.425781 82.105469 62.578125 82.121094 63.988281 C 82.109375 65.089844 82.183594 65.992188 82.355469 66.828125 C 82.394531 67.011719 82.429688 67.199219 82.460938 67.382812 C 82.535156 67.777344 82.609375 68.1875 82.726562 68.585938 C 82.84375 69.019531 82.957031 69.398438 83.074219 69.746094 L 83.085938 69.78125 L 83.085938 69.773438 C 83.21875 70.292969 83.421875 70.789062 83.640625 71.277344 C 83.734375 71.535156 83.914062 71.742188 84.035156 71.984375 C 84.191406 72.292969 84.34375 72.605469 84.5625 72.875 C 84.582031 72.910156 84.597656 72.953125 84.648438 72.957031 C 84.65625 72.957031 84.660156 72.953125 84.667969 72.953125 C 84.726562 73.035156 84.785156 73.113281 84.839844 73.1875 C 85.238281 73.707031 85.785156 74.375 86.457031 74.898438 C 86.925781 75.253906 87.433594 75.570312 87.964844 75.839844 L 87.972656 75.84375 C 88.691406 76.382812 89.472656 76.828125 90.304688 77.15625 C 91.304688 77.492188 92.136719 77.71875 92.925781 77.871094 C 92.9375 77.875 92.945312 77.871094 92.953125 77.871094 C 92.964844 77.871094 92.976562 77.871094 92.984375 77.871094 C 93.007812 77.871094 93.027344 77.875 93.046875 77.875 C 93.113281 77.878906 93.179688 77.878906 93.25 77.878906 C 93.703125 77.878906 94.214844 77.867188 94.71875 77.816406 L 94.730469 77.816406 C 95.382812 77.78125 96.058594 77.746094 96.699219 77.5625 C 98.339844 77.058594 99.855469 76.164062 101.078125 74.976562 C 101.890625 74.171875 102.597656 73.136719 103.175781 71.886719 C 103.484375 71.183594 103.738281 70.457031 103.988281 69.710938 C 104.03125 69.589844 104.066406 69.46875 104.097656 69.347656 C 104.140625 69.191406 104.1875 69.027344 104.246094 68.871094 C 104.253906 68.851562 104.253906 68.832031 104.242188 68.8125 C 104.257812 68.761719 104.277344 68.707031 104.292969 68.65625 C 104.335938 68.527344 104.378906 68.390625 104.414062 68.257812 C 104.53125 67.847656 104.65625 67.359375 104.695312 66.855469 C 104.792969 66.085938 104.851562 65.304688 104.863281 64.53125 C 104.890625 63.902344 104.875 63.230469 104.804688 62.351562 Z M 96.578125 57.4375 C 96.613281 57.546875 96.648438 57.65625 96.683594 57.761719 C 96.859375 58.296875 97.042969 58.851562 97.144531 59.417969 C 97.191406 59.722656 97.226562 60.046875 97.265625 60.445312 C 97.210938 60.46875 97.214844 60.550781 97.222656 60.601562 C 97.273438 60.945312 97.273438 61.304688 97.332031 61.648438 C 97.355469 61.941406 97.332031 62.234375 97.34375 62.527344 C 97.355469 62.699219 97.355469 62.867188 97.332031 63.035156 C 97.304688 63.316406 97.316406 63.597656 97.34375 63.878906 C 97.367188 64.105469 97.3125 64.332031 97.296875 64.554688 C 97.253906 64.875 97.265625 65.199219 97.277344 65.523438 C 97.273438 65.761719 97.207031 66 97.167969 66.238281 C 97.121094 66.503906 97.089844 66.765625 97 67.019531 C 96.988281 67.105469 96.859375 67.328125 96.960938 67.378906 C 96.96875 67.378906 96.976562 67.378906 96.984375 67.378906 C 96.902344 67.722656 96.816406 68.019531 96.726562 68.292969 C 96.53125 68.835938 96.265625 69.402344 95.925781 69.96875 C 95.898438 70.019531 95.867188 70.074219 95.835938 70.125 C 95.601562 70.519531 95.355469 70.925781 95.003906 71.230469 C 94.476562 71.632812 93.871094 71.921875 93.300781 72.039062 C 92.777344 72.125 92.230469 72.101562 91.71875 71.964844 L 91.710938 71.964844 C 91.699219 71.945312 91.675781 71.929688 91.648438 71.929688 C 91.640625 71.925781 91.628906 71.921875 91.617188 71.921875 L 91.609375 71.914062 C 91.164062 71.445312 90.808594 70.902344 90.558594 70.296875 C 90.457031 70.050781 90.371094 69.792969 90.285156 69.546875 C 90.226562 69.367188 90.164062 69.179688 90.09375 69 C 90.089844 68.972656 90.082031 68.941406 90.058594 68.925781 C 90.035156 68.820312 90.007812 68.710938 89.984375 68.605469 C 89.949219 68.460938 89.914062 68.3125 89.882812 68.167969 C 89.675781 67.210938 89.574219 66.269531 89.582031 65.359375 C 89.585938 64.171875 89.675781 63 89.785156 61.699219 C 89.910156 60.703125 90.191406 59.75 90.421875 59.03125 C 90.789062 57.824219 91.242188 56.925781 92.363281 56.164062 C 92.570312 56.003906 92.785156 55.867188 93.023438 55.746094 C 93.222656 55.640625 93.445312 55.519531 93.703125 55.484375 C 93.714844 55.480469 93.730469 55.480469 93.746094 55.480469 C 93.78125 55.480469 93.8125 55.480469 93.832031 55.453125 C 94.015625 55.472656 94.203125 55.46875 94.386719 55.460938 L 94.449219 55.460938 C 94.800781 55.46875 95.132812 55.507812 95.4375 55.578125 L 95.445312 55.578125 C 95.46875 55.605469 95.496094 55.628906 95.511719 55.660156 C 95.527344 55.675781 95.554688 55.675781 95.574219 55.671875 L 95.578125 55.671875 C 95.707031 55.832031 95.835938 56.011719 95.972656 56.222656 C 96.191406 56.570312 96.433594 56.980469 96.578125 57.4375 Z M 96.578125 57.4375 " fill-opacity="1" fill-rule="nonzero"/></g><g clip-path="url(#a363641e78)"><path fill="#fffffd" d="M 91.945312 54.605469 L 91.9375 54.582031 L 91.945312 54.582031 C 92.027344 54.550781 92.105469 54.53125 92.183594 54.523438 C 92.195312 54.519531 92.214844 54.519531 92.230469 54.519531 L 92.242188 54.515625 L 92.242188 54.535156 L 92.292969 54.507812 C 92.296875 54.503906 92.300781 54.5 92.304688 54.496094 L 92.3125 54.488281 L 92.320312 54.492188 C 92.324219 54.492188 92.332031 54.492188 92.339844 54.492188 L 92.34375 54.492188 C 92.347656 54.492188 92.355469 54.492188 92.359375 54.496094 L 92.457031 54.503906 L 92.363281 54.519531 C 92.351562 54.519531 92.339844 54.523438 92.328125 54.527344 L 92.230469 54.542969 C 92.128906 54.5625 92.039062 54.582031 91.953125 54.605469 Z M 94.609375 54.882812 C 94.648438 54.902344 94.691406 54.925781 94.746094 54.953125 L 94.753906 54.953125 L 94.765625 54.933594 L 94.757812 54.929688 C 94.699219 54.894531 94.636719 54.863281 94.570312 54.832031 L 94.566406 54.828125 L 94.554688 54.847656 L 94.574219 54.859375 C 94.585938 54.867188 94.597656 54.875 94.609375 54.882812 Z M 97.703125 75.484375 C 97.914062 75.398438 98.089844 75.265625 98.289062 75.09375 L 98.292969 75.089844 L 98.277344 75.070312 L 98.273438 75.074219 C 98.085938 75.207031 97.890625 75.335938 97.6875 75.460938 L 97.683594 75.464844 L 97.695312 75.488281 Z M 104.808594 62.351562 L 104.804688 62.25 C 104.773438 61.773438 104.742188 61.28125 104.679688 60.796875 C 104.585938 60.113281 104.433594 59.445312 104.230469 58.652344 C 104.203125 58.566406 104.179688 58.480469 104.152344 58.394531 L 104.148438 58.382812 C 104.074219 58.136719 103.996094 57.882812 103.929688 57.625 C 103.875 57.398438 103.777344 57.1875 103.679688 56.980469 C 103.617188 56.839844 103.546875 56.695312 103.492188 56.542969 C 103.484375 56.527344 103.476562 56.496094 103.46875 56.46875 C 103.453125 56.40625 103.4375 56.339844 103.386719 56.328125 C 103.382812 56.324219 103.382812 56.316406 103.378906 56.3125 C 103.375 56.308594 103.375 56.304688 103.371094 56.300781 C 103.371094 56.292969 103.367188 56.285156 103.363281 56.277344 C 103.324219 56.199219 103.285156 56.117188 103.246094 56.039062 C 103.175781 55.894531 103.101562 55.746094 103.019531 55.605469 C 102.351562 54.40625 101.421875 53.320312 100.261719 52.371094 C 99.875 52.046875 99.445312 51.789062 99.074219 51.582031 C 98.980469 51.535156 98.875 51.488281 98.757812 51.4375 L 98.675781 51.402344 L 98.742188 51.457031 C 99.894531 52.402344 100.816406 53.480469 101.480469 54.671875 C 101.5625 54.8125 101.636719 54.960938 101.707031 55.105469 L 101.707031 55.109375 C 101.746094 55.1875 101.785156 55.265625 101.828125 55.347656 C 101.828125 55.351562 101.832031 55.359375 101.832031 55.363281 L 101.855469 55.40625 L 101.859375 55.40625 C 101.898438 55.410156 101.914062 55.472656 101.929688 55.527344 C 101.9375 55.5625 101.945312 55.589844 101.953125 55.609375 C 102.007812 55.761719 102.074219 55.90625 102.140625 56.046875 C 102.238281 56.25 102.335938 56.460938 102.386719 56.6875 C 102.453125 56.945312 102.535156 57.199219 102.609375 57.445312 L 102.621094 57.480469 C 102.644531 57.558594 102.667969 57.636719 102.691406 57.714844 C 102.796875 58.125 102.917969 58.613281 103.011719 59.109375 L 103.019531 59.117188 C 103.085938 59.152344 103.097656 59.292969 103.105469 59.398438 C 103.105469 59.429688 103.109375 59.460938 103.113281 59.484375 C 103.128906 59.824219 103.195312 60.164062 103.261719 60.488281 C 103.273438 60.550781 103.285156 60.613281 103.296875 60.675781 C 103.3125 60.785156 103.316406 60.902344 103.324219 61.011719 L 103.324219 61.015625 C 103.335938 61.214844 103.351562 61.417969 103.394531 61.617188 C 103.425781 61.800781 103.410156 61.992188 103.394531 62.175781 L 103.390625 62.179688 C 103.386719 62.246094 103.382812 62.3125 103.378906 62.382812 C 103.378906 62.5 103.386719 62.617188 103.398438 62.726562 L 103.398438 62.730469 C 103.40625 62.832031 103.417969 62.9375 103.417969 63.039062 C 103.425781 63.339844 103.410156 63.644531 103.390625 63.945312 C 103.382812 64.066406 103.375 64.191406 103.371094 64.3125 C 103.371094 64.351562 103.371094 64.386719 103.371094 64.425781 C 103.375 64.691406 103.375 64.964844 103.324219 65.230469 C 103.308594 65.347656 103.296875 65.472656 103.285156 65.589844 C 103.269531 65.75 103.253906 65.917969 103.226562 66.078125 C 103.210938 66.136719 103.199219 66.191406 103.1875 66.25 C 103.128906 66.519531 103.066406 66.800781 103.03125 67.078125 C 103.003906 67.261719 102.949219 67.4375 102.898438 67.609375 C 102.875 67.703125 102.847656 67.796875 102.824219 67.886719 C 102.792969 68 102.753906 68.117188 102.710938 68.238281 C 102.710938 68.246094 102.703125 68.253906 102.695312 68.257812 C 102.679688 68.261719 102.660156 68.261719 102.640625 68.253906 C 102.636719 68.25 102.632812 68.246094 102.625 68.242188 L 102.613281 68.230469 L 102.605469 68.25 C 102.59375 68.296875 102.578125 68.347656 102.566406 68.398438 C 102.53125 68.515625 102.496094 68.640625 102.457031 68.761719 C 102.238281 69.402344 102.003906 70.082031 101.730469 70.730469 C 101.71875 70.78125 101.6875 70.847656 101.660156 70.902344 C 101.636719 70.949219 101.621094 70.984375 101.613281 71.007812 C 101.566406 71.117188 101.511719 71.226562 101.460938 71.332031 C 101.351562 71.554688 101.242188 71.785156 101.164062 72.019531 C 101.03125 72.390625 100.800781 72.714844 100.59375 72.984375 C 100.566406 73.023438 100.539062 73.0625 100.515625 73.097656 C 100.457031 73.179688 100.398438 73.261719 100.332031 73.335938 C 100.273438 73.398438 100.210938 73.457031 100.152344 73.511719 L 100.148438 73.511719 C 100.085938 73.570312 100.019531 73.628906 99.960938 73.695312 C 99.796875 73.914062 99.570312 74.191406 99.285156 74.417969 C 99.179688 74.5 99.078125 74.589844 98.984375 74.679688 C 98.863281 74.785156 98.742188 74.898438 98.605469 74.992188 C 98.296875 75.1875 98.019531 75.378906 97.765625 75.566406 C 97.464844 75.78125 97.117188 75.914062 96.78125 76.042969 L 96.777344 76.046875 C 96.648438 76.09375 96.515625 76.144531 96.382812 76.203125 C 96.355469 76.214844 96.324219 76.230469 96.292969 76.246094 L 96.285156 76.25 C 96.144531 76.320312 96 76.394531 95.84375 76.4375 C 95.769531 76.457031 95.691406 76.46875 95.617188 76.480469 C 95.5625 76.492188 95.503906 76.5 95.449219 76.511719 C 95.347656 76.546875 95.261719 76.574219 95.179688 76.597656 C 94.871094 76.6875 94.542969 76.75 94.132812 76.789062 C 93.921875 76.84375 93.679688 76.878906 93.417969 76.890625 L 93.414062 76.894531 C 93.394531 76.894531 93.375 76.898438 93.363281 76.882812 C 93.359375 76.871094 93.355469 76.863281 93.355469 76.855469 L 93.351562 76.847656 L 93.203125 76.855469 C 92.621094 76.910156 92.03125 76.917969 91.535156 76.914062 C 91.511719 76.910156 91.492188 76.910156 91.46875 76.910156 C 91.460938 76.90625 91.449219 76.90625 91.4375 76.90625 L 91.433594 76.90625 C 91.429688 76.910156 91.421875 76.910156 91.414062 76.910156 C 90.625 76.757812 89.792969 76.53125 88.792969 76.195312 C 88.527344 76.089844 88.25 75.964844 87.976562 75.824219 L 87.96875 75.820312 L 87.957031 75.839844 L 87.96875 75.847656 C 88.6875 76.390625 89.472656 76.832031 90.300781 77.164062 C 91.300781 77.5 92.136719 77.726562 92.925781 77.878906 C 92.9375 77.878906 92.945312 77.878906 92.957031 77.875 C 92.964844 77.878906 92.972656 77.878906 92.980469 77.878906 L 92.988281 77.878906 C 93.007812 77.878906 93.027344 77.878906 93.046875 77.882812 C 93.113281 77.882812 93.179688 77.882812 93.25 77.882812 C 93.617188 77.882812 94.171875 77.878906 94.71875 77.824219 L 94.730469 77.824219 C 95.382812 77.789062 96.058594 77.753906 96.703125 77.566406 C 98.34375 77.0625 99.859375 76.167969 101.082031 74.980469 C 101.898438 74.175781 102.601562 73.136719 103.179688 71.890625 C 103.492188 71.1875 103.742188 70.457031 103.996094 69.710938 C 104.035156 69.59375 104.070312 69.46875 104.105469 69.351562 L 104.097656 69.347656 L 104.105469 69.347656 C 104.148438 69.191406 104.195312 69.027344 104.253906 68.875 C 104.261719 68.855469 104.257812 68.832031 104.25 68.8125 C 104.265625 68.761719 104.28125 68.710938 104.296875 68.660156 L 104.300781 68.65625 C 104.34375 68.527344 104.386719 68.394531 104.421875 68.261719 C 104.539062 67.847656 104.660156 67.359375 104.703125 66.859375 C 104.800781 66.085938 104.855469 65.304688 104.871094 64.53125 C 104.898438 63.902344 104.878906 63.230469 104.808594 62.351562 Z M 100.667969 72.726562 C 100.6875 72.691406 100.710938 72.65625 100.730469 72.621094 L 100.753906 72.585938 L 100.730469 72.574219 L 100.730469 72.578125 C 100.675781 72.660156 100.617188 72.742188 100.550781 72.835938 L 100.546875 72.839844 L 100.566406 72.855469 L 100.601562 72.808594 C 100.625 72.78125 100.644531 72.753906 100.667969 72.726562 Z M 99.847656 73.753906 C 99.859375 73.738281 99.871094 73.726562 99.878906 73.710938 C 99.886719 73.703125 99.894531 73.691406 99.902344 73.683594 L 99.90625 73.675781 L 99.890625 73.660156 L 99.886719 73.667969 C 99.816406 73.742188 99.742188 73.820312 99.65625 73.90625 L 99.652344 73.910156 L 99.671875 73.929688 L 99.675781 73.925781 C 99.746094 73.863281 99.800781 73.808594 99.847656 73.753906 Z M 88.21875 66.449219 L 88.226562 66.449219 L 88.21875 66.449219 C 88.230469 66.496094 88.242188 66.546875 88.253906 66.59375 C 88.273438 66.691406 88.289062 66.792969 88.300781 66.894531 L 88.300781 66.898438 C 88.332031 67.109375 88.367188 67.324219 88.449219 67.53125 C 88.5 67.675781 88.523438 67.828125 88.546875 67.96875 C 88.554688 68.003906 88.558594 68.039062 88.566406 68.074219 C 88.632812 68.25 88.695312 68.433594 88.753906 68.609375 C 88.835938 68.855469 88.925781 69.113281 89.023438 69.359375 C 89.125 69.605469 89.246094 69.84375 89.386719 70.078125 L 89.429688 70.132812 C 89.664062 70.472656 89.910156 70.820312 90.234375 71.085938 C 90.566406 71.421875 90.875 71.644531 91.199219 71.785156 C 91.21875 71.792969 91.238281 71.800781 91.257812 71.808594 C 91.371094 71.855469 91.488281 71.90625 91.601562 71.929688 L 91.644531 71.941406 L 91.613281 71.910156 C 91.167969 71.441406 90.8125 70.898438 90.5625 70.292969 C 90.464844 70.046875 90.375 69.792969 90.292969 69.542969 C 90.230469 69.367188 90.167969 69.179688 90.101562 69 C 90.097656 68.972656 90.089844 68.941406 90.0625 68.921875 C 90.039062 68.820312 90.015625 68.71875 89.992188 68.617188 L 89.988281 68.605469 C 89.957031 68.46875 89.921875 68.316406 89.890625 68.164062 C 89.679688 67.210938 89.578125 66.265625 89.589844 65.359375 C 89.59375 64.171875 89.683594 63 89.792969 61.699219 C 89.917969 60.703125 90.195312 59.75 90.425781 59.035156 C 90.792969 57.828125 91.246094 56.929688 92.367188 56.167969 C 92.574219 56.007812 92.789062 55.871094 93.027344 55.753906 C 93.222656 55.648438 93.449219 55.527344 93.703125 55.492188 C 93.714844 55.488281 93.730469 55.488281 93.746094 55.488281 C 93.78125 55.484375 93.816406 55.484375 93.835938 55.460938 C 94.019531 55.480469 94.203125 55.472656 94.382812 55.46875 L 94.449219 55.464844 C 94.800781 55.476562 95.132812 55.515625 95.433594 55.582031 L 95.480469 55.59375 L 95.445312 55.5625 C 95.417969 55.535156 95.386719 55.511719 95.359375 55.484375 C 95.339844 55.46875 95.316406 55.449219 95.296875 55.433594 C 94.96875 55.121094 94.539062 54.921875 94.164062 54.773438 C 94.097656 54.75 94.03125 54.722656 93.96875 54.695312 C 93.851562 54.648438 93.730469 54.597656 93.605469 54.566406 C 93.269531 54.519531 92.96875 54.484375 92.664062 54.511719 C 92.410156 54.542969 92.167969 54.628906 91.933594 54.710938 C 91.828125 54.75 91.722656 54.785156 91.613281 54.820312 C 91.589844 54.828125 91.570312 54.832031 91.546875 54.839844 C 91.402344 54.886719 91.25 54.9375 91.113281 55.007812 C 91.011719 55.074219 90.921875 55.136719 90.835938 55.203125 C 90.808594 55.222656 90.777344 55.242188 90.75 55.261719 C 90.695312 55.308594 90.640625 55.359375 90.585938 55.40625 C 90.5625 55.425781 90.539062 55.449219 90.515625 55.46875 C 90.449219 55.53125 90.378906 55.585938 90.3125 55.644531 C 90.1875 55.746094 90.058594 55.851562 89.953125 55.976562 C 89.855469 56.097656 89.757812 56.230469 89.667969 56.359375 L 89.628906 56.414062 C 89.585938 56.476562 89.542969 56.539062 89.5 56.601562 C 89.332031 56.890625 89.183594 57.214844 89.046875 57.601562 C 89.027344 57.65625 89.011719 57.710938 88.992188 57.765625 C 88.964844 57.851562 88.933594 57.945312 88.902344 58.039062 C 88.898438 58.050781 88.894531 58.0625 88.890625 58.074219 L 88.890625 58.082031 C 88.894531 58.09375 88.894531 58.105469 88.890625 58.113281 C 88.832031 58.285156 88.777344 58.464844 88.730469 58.636719 C 88.703125 58.726562 88.675781 58.824219 88.644531 58.917969 C 88.589844 59.125 88.550781 59.34375 88.53125 59.582031 C 88.511719 59.734375 88.46875 59.890625 88.429688 60.039062 C 88.402344 60.140625 88.371094 60.242188 88.351562 60.34375 C 88.316406 60.535156 88.3125 60.726562 88.308594 60.917969 C 88.304688 61.101562 88.296875 61.292969 88.261719 61.476562 C 88.183594 61.796875 88.1875 62.128906 88.191406 62.449219 C 88.191406 62.535156 88.195312 62.621094 88.195312 62.710938 C 88.195312 62.871094 88.175781 63.035156 88.160156 63.191406 C 88.144531 63.332031 88.125 63.476562 88.125 63.617188 C 88.128906 64.203125 88.132812 64.972656 88.125 65.742188 C 88.121094 65.777344 88.121094 65.8125 88.121094 65.851562 C 88.136719 65.972656 88.152344 66.101562 88.171875 66.246094 C 88.1875 66.3125 88.203125 66.382812 88.21875 66.449219 Z M 88.21875 66.449219 " fill-opacity="1" fill-rule="nonzero"/></g><g clip-path="url(#225a90aeca)"><path fill="#040a9f" d="M 88.195312 66.242188 L 88.195312 66.246094 L 88.171875 66.25 L 88.171875 66.246094 C 88.136719 66.085938 88.121094 65.964844 88.121094 65.847656 L 88.121094 65.84375 L 88.144531 65.839844 L 88.144531 65.847656 C 88.160156 65.96875 88.175781 66.097656 88.195312 66.242188 Z M 89.046875 69.351562 C 88.945312 69.101562 88.859375 68.847656 88.777344 68.601562 L 88.777344 68.597656 C 88.714844 68.421875 88.65625 68.242188 88.589844 68.066406 L 88.585938 68.0625 L 88.566406 68.066406 L 88.566406 68.074219 C 88.582031 68.152344 88.59375 68.214844 88.609375 68.273438 C 88.804688 68.851562 89.03125 69.464844 89.347656 70.015625 L 89.390625 70.082031 L 89.414062 70.070312 L 89.410156 70.0625 C 89.269531 69.832031 89.148438 69.59375 89.046875 69.351562 Z M 95.453125 76.511719 C 95.398438 76.523438 95.355469 76.53125 95.316406 76.542969 L 95.316406 76.546875 C 95.121094 76.628906 94.90625 76.652344 94.699219 76.675781 C 94.574219 76.691406 94.441406 76.707031 94.3125 76.738281 C 94.257812 76.753906 94.199219 76.773438 94.132812 76.789062 L 94.128906 76.792969 L 94.132812 76.816406 L 94.136719 76.816406 C 94.546875 76.773438 94.878906 76.710938 95.1875 76.621094 C 95.269531 76.597656 95.355469 76.570312 95.457031 76.535156 L 95.464844 76.53125 L 95.457031 76.511719 Z M 89.5 56.601562 C 89.359375 56.800781 89.214844 57.007812 89.152344 57.253906 C 89.117188 57.375 89.078125 57.496094 89.046875 57.601562 L 89.042969 57.605469 L 89.066406 57.617188 L 89.070312 57.609375 C 89.207031 57.226562 89.355469 56.902344 89.519531 56.617188 L 89.523438 56.609375 L 89.503906 56.597656 Z M 91.113281 55.007812 C 91.097656 55.015625 91.078125 55.027344 91.054688 55.039062 C 90.960938 55.09375 90.867188 55.164062 90.75 55.261719 L 90.746094 55.265625 L 90.761719 55.285156 L 90.765625 55.28125 C 90.792969 55.261719 90.820312 55.242188 90.847656 55.222656 C 90.933594 55.15625 91.027344 55.09375 91.125 55.027344 L 91.128906 55.027344 L 91.117188 55.003906 Z M 103.324219 64.039062 C 103.324219 64.148438 103.304688 64.257812 103.285156 64.367188 C 103.273438 64.425781 103.261719 64.492188 103.253906 64.554688 C 103.230469 64.707031 103.226562 64.867188 103.222656 65.019531 L 103.222656 65.023438 C 103.21875 65.070312 103.21875 65.121094 103.214844 65.167969 C 103.210938 65.292969 103.191406 65.40625 103.171875 65.523438 L 103.171875 65.527344 C 103.15625 65.605469 103.144531 65.6875 103.132812 65.769531 C 103.125 65.855469 103.121094 65.945312 103.117188 66.03125 L 103.117188 66.035156 C 103.113281 66.148438 103.113281 66.261719 103.09375 66.375 C 103.078125 66.480469 103.042969 66.585938 103.007812 66.6875 L 103.003906 66.6875 C 102.988281 66.738281 102.96875 66.789062 102.953125 66.839844 C 102.914062 66.976562 102.886719 67.117188 102.859375 67.25 C 102.828125 67.414062 102.796875 67.582031 102.738281 67.742188 C 102.691406 67.871094 102.636719 68.023438 102.59375 68.164062 C 102.585938 68.195312 102.605469 68.226562 102.625 68.242188 L 102.632812 68.25 L 102.628906 68.257812 C 102.617188 68.304688 102.601562 68.355469 102.589844 68.40625 C 102.554688 68.523438 102.519531 68.648438 102.480469 68.769531 C 102.261719 69.410156 102.027344 70.089844 101.753906 70.738281 L 101.75 70.742188 L 101.730469 70.734375 L 101.730469 70.730469 C 101.738281 70.691406 101.734375 70.664062 101.71875 70.65625 C 101.707031 70.648438 101.699219 70.648438 101.691406 70.652344 C 101.679688 70.65625 101.667969 70.667969 101.660156 70.683594 C 101.621094 70.777344 101.578125 70.867188 101.53125 70.953125 C 101.484375 71.042969 101.4375 71.136719 101.398438 71.234375 C 101.378906 71.289062 101.359375 71.347656 101.339844 71.402344 L 101.339844 71.40625 C 101.289062 71.5625 101.234375 71.722656 101.164062 71.871094 C 101.050781 72.082031 100.917969 72.3125 100.75 72.589844 C 100.695312 72.671875 100.636719 72.757812 100.570312 72.851562 C 100.476562 72.96875 100.382812 73.085938 100.289062 73.199219 L 100.28125 73.210938 C 100.15625 73.363281 100.027344 73.523438 99.902344 73.683594 C 99.832031 73.761719 99.757812 73.839844 99.675781 73.925781 C 99.628906 73.964844 99.578125 74.003906 99.535156 74.039062 C 99.472656 74.09375 99.402344 74.148438 99.34375 74.207031 C 99.128906 74.421875 98.886719 74.621094 98.609375 74.820312 C 98.535156 74.878906 98.464844 74.945312 98.394531 75.003906 L 98.390625 75.007812 C 98.355469 75.035156 98.324219 75.066406 98.289062 75.09375 C 98.101562 75.226562 97.90625 75.359375 97.703125 75.484375 C 97.519531 75.5625 97.347656 75.65625 97.183594 75.75 C 97 75.851562 96.8125 75.957031 96.613281 76.035156 C 96.515625 76.070312 96.417969 76.097656 96.320312 76.121094 C 96.234375 76.144531 96.144531 76.167969 96.058594 76.195312 C 95.996094 76.214844 95.9375 76.238281 95.878906 76.261719 L 95.875 76.261719 C 95.738281 76.320312 95.597656 76.375 95.445312 76.386719 C 95.253906 76.410156 95.070312 76.464844 94.890625 76.515625 C 94.691406 76.574219 94.484375 76.636719 94.273438 76.652344 C 94.191406 76.664062 94.109375 76.679688 94.03125 76.695312 C 93.960938 76.710938 93.882812 76.726562 93.808594 76.738281 C 93.78125 76.746094 93.730469 76.746094 93.671875 76.746094 C 93.550781 76.746094 93.402344 76.75 93.363281 76.804688 C 93.351562 76.816406 93.347656 76.835938 93.355469 76.855469 L 93.359375 76.871094 L 93.34375 76.871094 L 93.203125 76.878906 C 92.65625 76.933594 92.101562 76.9375 91.734375 76.9375 C 91.664062 76.9375 91.597656 76.9375 91.53125 76.9375 C 91.511719 76.933594 91.492188 76.933594 91.472656 76.933594 L 91.464844 76.933594 C 91.457031 76.933594 91.449219 76.933594 91.441406 76.933594 C 91.429688 76.933594 91.417969 76.933594 91.410156 76.933594 C 90.617188 76.78125 89.785156 76.554688 88.785156 76.21875 C 88.515625 76.109375 88.238281 75.984375 87.964844 75.847656 C 87.429688 75.574219 86.921875 75.257812 86.453125 74.902344 C 85.78125 74.378906 85.234375 73.710938 84.835938 73.191406 C 84.777344 73.117188 84.71875 73.039062 84.664062 72.957031 L 84.652344 72.945312 L 84.667969 72.9375 C 84.679688 72.933594 84.683594 72.925781 84.6875 72.914062 C 84.699219 72.867188 84.621094 72.777344 84.578125 72.71875 C 84.5625 72.703125 84.546875 72.683594 84.539062 72.671875 C 84.449219 72.539062 84.367188 72.394531 84.285156 72.257812 C 84.222656 72.152344 84.160156 72.042969 84.09375 71.941406 C 83.988281 71.769531 83.910156 71.585938 83.835938 71.40625 L 83.835938 71.402344 C 83.8125 71.347656 83.789062 71.292969 83.765625 71.242188 C 83.746094 71.199219 83.722656 71.15625 83.699219 71.113281 C 83.640625 71.003906 83.578125 70.894531 83.542969 70.769531 C 83.511719 70.632812 83.46875 70.472656 83.398438 70.328125 C 83.378906 70.289062 83.363281 70.253906 83.34375 70.21875 C 83.277344 70.09375 83.210938 69.964844 83.171875 69.820312 C 83.171875 69.816406 83.167969 69.804688 83.164062 69.796875 C 83.152344 69.761719 83.136719 69.726562 83.105469 69.730469 C 83.101562 69.730469 83.09375 69.730469 83.09375 69.746094 L 83.089844 69.816406 L 83.070312 69.75 C 82.953125 69.402344 82.835938 69.019531 82.71875 68.585938 C 82.605469 68.191406 82.527344 67.78125 82.457031 67.382812 L 82.453125 67.378906 C 82.421875 67.199219 82.386719 67.011719 82.351562 66.828125 C 82.175781 65.992188 82.101562 65.089844 82.117188 63.988281 C 82.097656 62.578125 82.1875 61.425781 82.394531 60.359375 C 82.410156 60.261719 82.425781 60.164062 82.441406 60.066406 C 82.542969 59.4375 82.648438 58.789062 82.824219 58.164062 C 82.859375 58.039062 82.898438 57.910156 82.933594 57.789062 C 82.96875 57.671875 83.003906 57.554688 83.035156 57.433594 C 83.042969 57.410156 83.046875 57.386719 83.054688 57.363281 L 83.058594 57.347656 L 83.074219 57.355469 C 83.074219 57.359375 83.078125 57.359375 83.078125 57.359375 C 83.078125 57.363281 83.082031 57.363281 83.082031 57.363281 C 83.105469 57.363281 83.121094 57.335938 83.125 57.316406 C 83.136719 57.253906 83.152344 57.167969 83.1875 57.089844 C 83.261719 56.933594 83.316406 56.769531 83.371094 56.609375 C 83.417969 56.480469 83.460938 56.34375 83.519531 56.214844 C 83.5625 56.125 83.613281 56.042969 83.660156 55.960938 C 83.71875 55.867188 83.773438 55.769531 83.824219 55.667969 C 83.847656 55.617188 83.871094 55.5625 83.890625 55.515625 C 83.929688 55.417969 83.972656 55.320312 84.019531 55.226562 C 84.050781 55.175781 84.085938 55.121094 84.121094 55.070312 C 84.1875 54.96875 84.257812 54.863281 84.3125 54.75 C 84.359375 54.652344 84.402344 54.546875 84.453125 54.402344 C 84.519531 54.246094 84.621094 54.09375 84.773438 53.914062 C 84.820312 53.859375 84.875 53.800781 84.925781 53.746094 C 85 53.667969 85.078125 53.585938 85.144531 53.5 C 85.203125 53.425781 85.257812 53.34375 85.3125 53.265625 C 85.382812 53.160156 85.460938 53.054688 85.546875 52.957031 C 85.609375 52.894531 85.675781 52.835938 85.738281 52.777344 C 85.808594 52.714844 85.878906 52.652344 85.945312 52.585938 C 85.996094 52.535156 86.042969 52.480469 86.089844 52.425781 C 86.144531 52.363281 86.199219 52.296875 86.265625 52.242188 C 86.496094 52.039062 86.730469 51.835938 86.957031 51.636719 L 87.179688 51.445312 C 87.359375 51.300781 87.558594 51.183594 87.753906 51.070312 C 87.921875 50.972656 88.09375 50.875 88.253906 50.757812 C 88.355469 50.707031 88.460938 50.664062 88.5625 50.621094 C 88.734375 50.546875 88.910156 50.472656 89.074219 50.378906 C 89.121094 50.359375 89.167969 50.332031 89.214844 50.304688 C 89.28125 50.269531 89.351562 50.230469 89.421875 50.199219 C 89.507812 50.164062 89.601562 50.148438 89.691406 50.132812 C 89.734375 50.121094 89.777344 50.113281 89.820312 50.105469 C 89.925781 50.082031 90.03125 50.046875 90.132812 50.011719 C 90.253906 49.96875 90.375 49.925781 90.503906 49.902344 C 90.605469 49.890625 90.707031 49.867188 90.804688 49.847656 C 90.960938 49.8125 91.117188 49.777344 91.277344 49.777344 C 91.359375 49.769531 91.4375 49.765625 91.515625 49.765625 C 91.585938 49.761719 91.660156 49.761719 91.734375 49.753906 C 91.824219 49.746094 91.910156 49.726562 91.996094 49.707031 C 92.082031 49.691406 92.171875 49.671875 92.265625 49.660156 C 92.320312 49.65625 92.378906 49.65625 92.4375 49.65625 L 92.449219 49.65625 C 92.476562 49.65625 92.503906 49.65625 92.53125 49.652344 C 92.546875 49.652344 92.554688 49.628906 92.554688 49.613281 C 92.554688 49.609375 92.554688 49.601562 92.550781 49.597656 L 92.546875 49.582031 L 92.5625 49.582031 C 92.878906 49.5625 93.402344 49.605469 93.714844 49.632812 C 93.847656 49.644531 93.945312 49.652344 93.980469 49.652344 L 93.984375 49.652344 C 94.273438 49.683594 94.558594 49.75 94.832031 49.816406 C 95.011719 49.859375 95.199219 49.90625 95.386719 49.9375 L 95.410156 49.945312 C 95.765625 50.011719 96.132812 50.082031 96.480469 50.199219 C 96.886719 50.347656 97.226562 50.472656 97.558594 50.640625 C 97.929688 50.847656 98.355469 51.101562 98.746094 51.425781 L 98.75 51.433594 C 98.753906 51.433594 98.757812 51.4375 98.757812 51.4375 C 99.914062 52.382812 100.835938 53.46875 101.503906 54.660156 C 101.585938 54.800781 101.660156 54.949219 101.730469 55.09375 C 101.769531 55.171875 101.808594 55.253906 101.847656 55.335938 C 101.851562 55.34375 101.855469 55.351562 101.855469 55.359375 C 101.859375 55.359375 101.859375 55.367188 101.863281 55.371094 C 101.867188 55.375 101.867188 55.378906 101.871094 55.382812 C 101.921875 55.394531 101.9375 55.464844 101.953125 55.523438 C 101.960938 55.554688 101.96875 55.582031 101.976562 55.597656 C 102.03125 55.75 102.097656 55.898438 102.164062 56.035156 C 102.261719 56.242188 102.359375 56.453125 102.414062 56.679688 C 102.476562 56.9375 102.554688 57.191406 102.632812 57.4375 L 102.636719 57.449219 C 102.664062 57.535156 102.6875 57.621094 102.714844 57.707031 C 102.820312 58.121094 102.941406 58.609375 103.039062 59.105469 L 103.042969 59.128906 L 103.019531 59.117188 C 103.007812 59.113281 103 59.109375 102.988281 59.109375 C 102.964844 59.109375 102.957031 59.128906 102.957031 59.148438 C 102.984375 59.292969 103.003906 59.441406 103.019531 59.582031 C 103.023438 59.730469 103.058594 59.878906 103.089844 60.019531 C 103.125 60.15625 103.160156 60.300781 103.164062 60.445312 C 103.160156 60.65625 103.183594 60.863281 103.210938 61.0625 C 103.226562 61.179688 103.238281 61.296875 103.25 61.414062 C 103.25 61.628906 103.269531 61.84375 103.289062 62.050781 L 103.289062 62.054688 C 103.304688 62.21875 103.320312 62.394531 103.324219 62.5625 C 103.320312 62.703125 103.3125 62.839844 103.304688 62.96875 L 103.304688 62.980469 C 103.296875 63.082031 103.289062 63.1875 103.285156 63.289062 C 103.28125 63.433594 103.292969 63.578125 103.304688 63.71875 C 103.316406 63.824219 103.324219 63.929688 103.324219 64.039062 Z M 97.46875 62.40625 C 97.476562 62.257812 97.457031 62.109375 97.433594 61.96875 L 97.433594 61.960938 C 97.425781 61.921875 97.421875 61.882812 97.417969 61.847656 C 97.402344 61.679688 97.394531 61.507812 97.386719 61.34375 C 97.378906 61.109375 97.367188 60.863281 97.339844 60.625 C 97.332031 60.605469 97.328125 60.582031 97.328125 60.554688 C 97.324219 60.507812 97.320312 60.460938 97.28125 60.453125 C 97.28125 60.453125 97.28125 60.453125 97.277344 60.453125 C 97.277344 60.453125 97.277344 60.457031 97.273438 60.457031 L 97.257812 60.460938 L 97.257812 60.445312 C 97.222656 60.046875 97.183594 59.722656 97.140625 59.417969 C 97.035156 58.855469 96.851562 58.300781 96.675781 57.765625 C 96.640625 57.65625 96.605469 57.550781 96.570312 57.441406 C 96.429688 56.984375 96.1875 56.570312 95.96875 56.226562 C 95.832031 56.015625 95.703125 55.835938 95.574219 55.675781 L 95.5625 55.664062 L 95.578125 55.65625 C 95.601562 55.648438 95.628906 55.628906 95.625 55.601562 C 95.609375 55.523438 95.539062 55.46875 95.46875 55.414062 C 95.453125 55.402344 95.4375 55.390625 95.425781 55.378906 C 95.382812 55.347656 95.34375 55.3125 95.300781 55.28125 C 95.25 55.234375 95.191406 55.1875 95.132812 55.148438 C 95.039062 55.085938 94.933594 55.039062 94.835938 54.992188 C 94.804688 54.976562 94.777344 54.964844 94.746094 54.953125 C 94.6875 54.917969 94.625 54.882812 94.558594 54.851562 C 94.519531 54.828125 94.476562 54.800781 94.4375 54.777344 C 94.367188 54.730469 94.296875 54.683594 94.21875 54.648438 C 93.886719 54.507812 93.53125 54.4375 93.226562 54.386719 C 93.023438 54.351562 92.820312 54.40625 92.625 54.457031 C 92.539062 54.480469 92.457031 54.5 92.371094 54.515625 L 92.359375 54.519531 C 92.351562 54.519531 92.347656 54.519531 92.339844 54.519531 C 92.332031 54.519531 92.328125 54.515625 92.320312 54.515625 C 92.316406 54.523438 92.308594 54.527344 92.304688 54.53125 L 92.300781 54.53125 L 92.28125 54.535156 C 92.269531 54.535156 92.253906 54.539062 92.238281 54.542969 L 92.230469 54.542969 C 92.214844 54.542969 92.199219 54.542969 92.1875 54.546875 C 92.113281 54.558594 92.035156 54.574219 91.953125 54.605469 C 91.667969 54.671875 91.4375 54.757812 91.234375 54.863281 C 91.160156 54.902344 91.09375 54.949219 91.027344 55 C 91.007812 55.011719 90.992188 55.023438 90.976562 55.035156 C 90.90625 55.082031 90.839844 55.125 90.769531 55.164062 C 90.617188 55.257812 90.460938 55.355469 90.320312 55.480469 C 90.296875 55.503906 90.269531 55.527344 90.246094 55.554688 C 90.015625 55.769531 89.78125 55.992188 89.605469 56.253906 C 89.546875 56.339844 89.5 56.433594 89.453125 56.527344 C 89.402344 56.632812 89.351562 56.738281 89.285156 56.832031 C 89.121094 57.046875 89.011719 57.253906 88.953125 57.464844 C 88.925781 57.539062 88.90625 57.621094 88.886719 57.699219 C 88.855469 57.824219 88.824219 57.957031 88.769531 58.082031 C 88.769531 58.089844 88.765625 58.09375 88.761719 58.097656 C 88.75 58.128906 88.734375 58.164062 88.75 58.183594 L 88.753906 58.1875 L 88.75 58.195312 C 88.734375 58.242188 88.71875 58.289062 88.703125 58.332031 C 88.664062 58.453125 88.621094 58.578125 88.589844 58.703125 C 88.554688 58.890625 88.523438 59.058594 88.460938 59.226562 C 88.355469 59.476562 88.332031 59.75 88.3125 60.015625 C 88.304688 60.128906 88.296875 60.246094 88.277344 60.359375 C 88.257812 60.507812 88.226562 60.65625 88.199219 60.800781 C 88.175781 60.902344 88.15625 61.003906 88.136719 61.109375 C 88.121094 61.222656 88.121094 61.335938 88.125 61.445312 C 88.128906 61.515625 88.128906 61.589844 88.128906 61.660156 C 88.125 61.761719 88.113281 61.863281 88.105469 61.960938 C 88.089844 62.117188 88.078125 62.273438 88.085938 62.429688 C 88.09375 62.558594 88.082031 62.683594 88.070312 62.808594 C 88.058594 62.902344 88.050781 62.996094 88.050781 63.089844 C 88.046875 63.179688 88.054688 63.269531 88.058594 63.355469 C 88.066406 63.46875 88.074219 63.585938 88.066406 63.703125 C 88.058594 63.769531 88.046875 63.839844 88.035156 63.90625 C 88.023438 63.984375 88.007812 64.066406 88.003906 64.144531 C 87.992188 64.273438 88 64.402344 88.007812 64.527344 C 88.015625 64.640625 88.023438 64.761719 88.015625 64.882812 C 87.984375 65.136719 87.996094 65.410156 88.042969 65.71875 C 88.058594 65.84375 88.070312 65.96875 88.078125 66.09375 C 88.101562 66.363281 88.121094 66.644531 88.191406 66.910156 C 88.242188 67.238281 88.308594 67.585938 88.4375 67.914062 C 88.519531 68.113281 88.570312 68.328125 88.617188 68.53125 C 88.664062 68.726562 88.710938 68.929688 88.789062 69.121094 C 88.847656 69.265625 88.933594 69.402344 89.011719 69.535156 C 89.089844 69.660156 89.171875 69.792969 89.234375 69.933594 C 89.328125 70.164062 89.4375 70.402344 89.621094 70.601562 C 89.707031 70.683594 89.789062 70.777344 89.867188 70.863281 C 89.964844 70.972656 90.0625 71.085938 90.171875 71.183594 C 90.265625 71.265625 90.367188 71.335938 90.46875 71.40625 C 90.546875 71.457031 90.625 71.511719 90.699219 71.570312 C 90.984375 71.804688 91.324219 71.972656 91.65625 72.046875 C 91.671875 72.046875 91.695312 72.046875 91.707031 72.03125 C 91.714844 72.015625 91.714844 71.996094 91.703125 71.976562 L 91.691406 71.953125 L 91.71875 71.960938 C 92.230469 72.09375 92.777344 72.121094 93.300781 72.035156 C 93.867188 71.917969 94.472656 71.628906 95 71.226562 C 95.351562 70.921875 95.59375 70.515625 95.828125 70.121094 C 95.859375 70.070312 95.890625 70.019531 95.921875 69.96875 C 96.257812 69.398438 96.527344 68.835938 96.71875 68.292969 C 96.808594 68.019531 96.894531 67.71875 96.980469 67.375 L 96.980469 67.367188 L 96.988281 67.367188 C 97.007812 67.363281 97.03125 67.339844 97.035156 67.316406 C 97.074219 67.183594 97.105469 67.050781 97.136719 66.917969 C 97.265625 66.492188 97.324219 66.132812 97.316406 65.792969 C 97.328125 65.679688 97.335938 65.570312 97.34375 65.460938 L 97.347656 65.449219 C 97.367188 65.203125 97.390625 64.945312 97.40625 64.691406 C 97.417969 64.527344 97.414062 64.359375 97.410156 64.195312 C 97.40625 63.984375 97.402344 63.765625 97.429688 63.554688 C 97.457031 63.339844 97.457031 63.128906 97.453125 62.925781 C 97.453125 62.757812 97.453125 62.582031 97.46875 62.40625 Z M 97.46875 62.40625 " fill-opacity="1" fill-rule="nonzero"/></g><g clip-path="url(#318078e896)"><path fill="#fffffd" d="M 89.222656 69.941406 C 89.097656 69.652344 88.894531 69.414062 88.777344 69.125 C 88.621094 68.734375 88.585938 68.308594 88.425781 67.917969 C 88.296875 67.597656 88.230469 67.253906 88.179688 66.914062 C 88.078125 66.523438 88.078125 66.117188 88.03125 65.71875 C 87.988281 65.441406 87.96875 65.164062 88 64.882812 C 88.019531 64.628906 87.96875 64.394531 87.992188 64.144531 C 88 63.996094 88.039062 63.847656 88.050781 63.703125 C 88.070312 63.5 88.03125 63.296875 88.035156 63.089844 C 88.039062 62.871094 88.089844 62.652344 88.074219 62.429688 C 88.058594 62.171875 88.105469 61.917969 88.113281 61.660156 C 88.125 61.476562 88.09375 61.292969 88.125 61.109375 C 88.167969 60.859375 88.234375 60.609375 88.265625 60.359375 C 88.320312 59.976562 88.296875 59.582031 88.449219 59.222656 C 88.511719 59.050781 88.546875 58.878906 88.578125 58.703125 C 88.621094 58.527344 88.683594 58.359375 88.738281 58.191406 C 88.71875 58.164062 88.742188 58.117188 88.757812 58.078125 C 88.84375 57.878906 88.875 57.664062 88.9375 57.460938 C 89.007812 57.226562 89.128906 57.015625 89.273438 56.824219 C 89.402344 56.644531 89.472656 56.429688 89.59375 56.246094 C 89.792969 55.953125 90.058594 55.714844 90.3125 55.46875 C 90.515625 55.292969 90.75 55.171875 90.96875 55.027344 C 91.058594 54.960938 91.136719 54.902344 91.230469 54.855469 C 91.457031 54.734375 91.699219 54.652344 91.949219 54.59375 C 92.042969 54.570312 92.140625 54.546875 92.238281 54.53125 C 92.257812 54.527344 92.277344 54.523438 92.296875 54.519531 C 92.320312 54.515625 92.339844 54.511719 92.359375 54.507812 C 92.363281 54.507812 92.367188 54.503906 92.371094 54.503906 C 92.652344 54.453125 92.9375 54.324219 93.230469 54.375 C 93.566406 54.429688 93.910156 54.503906 94.222656 54.636719 C 94.34375 54.691406 94.449219 54.773438 94.566406 54.84375 C 94.582031 54.851562 94.597656 54.863281 94.617188 54.871094 C 94.660156 54.894531 94.707031 54.917969 94.753906 54.941406 C 94.882812 55.003906 95.019531 55.058594 95.140625 55.136719 C 95.242188 55.207031 95.332031 55.296875 95.433594 55.371094 C 95.511719 55.433594 95.617188 55.496094 95.636719 55.601562 C 95.640625 55.632812 95.613281 55.660156 95.582031 55.667969 C 95.558594 55.679688 95.53125 55.675781 95.511719 55.660156 C 95.492188 55.625 95.464844 55.597656 95.4375 55.570312 C 95.390625 55.527344 95.335938 55.484375 95.285156 55.441406 C 94.96875 55.136719 94.5625 54.945312 94.160156 54.785156 C 93.972656 54.714844 93.792969 54.625 93.601562 54.578125 C 93.292969 54.535156 92.976562 54.496094 92.664062 54.523438 C 92.300781 54.570312 91.964844 54.726562 91.617188 54.832031 C 91.449219 54.886719 91.277344 54.9375 91.117188 55.019531 C 91.101562 55.027344 91.082031 55.039062 91.0625 55.050781 C 90.953125 55.113281 90.855469 55.191406 90.757812 55.269531 C 90.679688 55.339844 90.601562 55.410156 90.523438 55.480469 C 90.339844 55.648438 90.125 55.792969 89.964844 55.984375 C 89.851562 56.125 89.742188 56.277344 89.640625 56.421875 C 89.597656 56.484375 89.554688 56.546875 89.511719 56.609375 C 89.367188 56.8125 89.226562 57.015625 89.164062 57.257812 C 89.132812 57.371094 89.09375 57.488281 89.058594 57.605469 C 89.011719 57.75 88.960938 57.898438 88.914062 58.042969 C 88.910156 58.054688 88.90625 58.066406 88.902344 58.078125 C 88.90625 58.089844 88.90625 58.105469 88.902344 58.117188 C 88.8125 58.382812 88.738281 58.652344 88.65625 58.917969 C 88.597656 59.136719 88.5625 59.359375 88.542969 59.582031 C 88.511719 59.839844 88.417969 60.09375 88.363281 60.347656 C 88.292969 60.722656 88.347656 61.105469 88.277344 61.480469 C 88.175781 61.886719 88.207031 62.300781 88.207031 62.710938 C 88.210938 63.015625 88.140625 63.3125 88.136719 63.617188 C 88.144531 64.328125 88.144531 65.035156 88.136719 65.742188 C 88.132812 65.777344 88.132812 65.8125 88.132812 65.847656 C 88.136719 65.980469 88.15625 66.113281 88.183594 66.242188 C 88.207031 66.359375 88.238281 66.472656 88.265625 66.589844 C 88.328125 66.902344 88.339844 67.226562 88.460938 67.527344 C 88.523438 67.707031 88.546875 67.890625 88.578125 68.070312 C 88.589844 68.136719 88.601562 68.203125 88.621094 68.269531 C 88.820312 68.863281 89.042969 69.460938 89.355469 70.011719 C 89.371094 70.03125 89.382812 70.050781 89.398438 70.070312 C 89.652344 70.429688 89.902344 70.796875 90.242188 71.078125 C 90.527344 71.363281 90.835938 71.613281 91.203125 71.773438 C 91.335938 71.828125 91.472656 71.890625 91.605469 71.917969 C 91.621094 71.921875 91.636719 71.925781 91.652344 71.929688 C 91.679688 71.929688 91.703125 71.949219 91.714844 71.972656 C 91.738281 72.011719 91.726562 72.066406 91.652344 72.058594 C 91.304688 71.980469 90.96875 71.804688 90.691406 71.582031 C 90.519531 71.445312 90.328125 71.339844 90.164062 71.195312 C 89.964844 71.015625 89.804688 70.796875 89.613281 70.609375 C 89.433594 70.414062 89.320312 70.179688 89.222656 69.941406 Z M 97.222656 60.601562 C 97.273438 60.945312 97.273438 61.304688 97.332031 61.648438 C 97.355469 61.941406 97.332031 62.234375 97.34375 62.527344 C 97.355469 62.699219 97.355469 62.867188 97.332031 63.035156 C 97.304688 63.316406 97.316406 63.597656 97.34375 63.878906 C 97.367188 64.105469 97.3125 64.332031 97.296875 64.554688 C 97.253906 64.875 97.265625 65.199219 97.277344 65.523438 C 97.273438 65.761719 97.207031 66 97.167969 66.238281 C 97.121094 66.503906 97.089844 66.765625 97 67.019531 C 96.988281 67.105469 96.859375 67.328125 96.960938 67.378906 C 96.972656 67.382812 96.980469 67.382812 96.992188 67.378906 C 97.019531 67.375 97.039062 67.347656 97.046875 67.320312 C 97.085938 67.1875 97.121094 67.054688 97.148438 66.921875 C 97.261719 66.554688 97.335938 66.179688 97.332031 65.792969 C 97.359375 65.425781 97.394531 65.058594 97.417969 64.691406 C 97.441406 64.316406 97.394531 63.933594 97.441406 63.554688 C 97.492188 63.167969 97.449219 62.796875 97.480469 62.40625 C 97.492188 62.214844 97.453125 62.03125 97.429688 61.84375 C 97.398438 61.441406 97.398438 61.027344 97.351562 60.621094 C 97.332031 60.566406 97.355469 60.449219 97.28125 60.441406 C 97.277344 60.441406 97.273438 60.441406 97.269531 60.445312 C 97.207031 60.460938 97.214844 60.546875 97.222656 60.601562 Z M 101.722656 70.644531 C 101.691406 70.625 101.660156 70.648438 101.648438 70.679688 C 101.574219 70.867188 101.460938 71.039062 101.386719 71.230469 C 101.3125 71.441406 101.25 71.660156 101.152344 71.863281 C 101.023438 72.105469 100.882812 72.347656 100.738281 72.585938 C 100.710938 72.628906 100.683594 72.675781 100.65625 72.71875 C 100.625 72.761719 100.59375 72.800781 100.558594 72.84375 C 100.339844 73.121094 100.113281 73.394531 99.894531 73.675781 C 99.875 73.699219 99.855469 73.722656 99.839844 73.746094 C 99.785156 73.804688 99.726562 73.863281 99.667969 73.914062 C 99.558594 74.011719 99.4375 74.101562 99.332031 74.199219 C 99.105469 74.421875 98.859375 74.625 98.601562 74.8125 C 98.492188 74.898438 98.386719 74.996094 98.28125 75.085938 C 98.101562 75.238281 97.917969 75.382812 97.695312 75.472656 C 97.320312 75.632812 96.988281 75.871094 96.609375 76.023438 C 96.425781 76.085938 96.238281 76.121094 96.054688 76.183594 C 95.851562 76.25 95.660156 76.359375 95.445312 76.375 C 95.042969 76.421875 94.675781 76.605469 94.269531 76.640625 C 94.117188 76.664062 93.964844 76.699219 93.808594 76.726562 C 93.707031 76.75 93.296875 76.691406 93.34375 76.859375 C 93.34375 76.867188 93.347656 76.878906 93.355469 76.886719 C 93.371094 76.910156 93.394531 76.90625 93.421875 76.90625 C 93.65625 76.894531 93.902344 76.863281 94.136719 76.800781 C 94.199219 76.785156 94.257812 76.769531 94.316406 76.75 C 94.652344 76.671875 95 76.691406 95.320312 76.558594 C 95.363281 76.542969 95.410156 76.53125 95.453125 76.523438 C 95.582031 76.496094 95.722656 76.480469 95.847656 76.449219 C 96.039062 76.398438 96.210938 76.300781 96.390625 76.210938 C 96.855469 76.011719 97.355469 75.878906 97.773438 75.578125 C 98.046875 75.375 98.328125 75.183594 98.613281 75.003906 C 98.859375 74.828125 99.054688 74.613281 99.292969 74.425781 C 99.554688 74.21875 99.769531 73.96875 99.96875 73.703125 C 100.082031 73.574219 100.21875 73.476562 100.339844 73.34375 C 100.4375 73.234375 100.515625 73.109375 100.605469 72.992188 C 100.832031 72.695312 101.046875 72.378906 101.175781 72.023438 C 101.292969 71.675781 101.476562 71.347656 101.625 71.011719 C 101.636719 70.960938 101.722656 70.824219 101.742188 70.734375 C 101.75 70.691406 101.75 70.660156 101.722656 70.644531 Z M 102.945312 59.148438 C 102.972656 59.292969 102.992188 59.4375 103.007812 59.582031 C 103.015625 59.878906 103.140625 60.152344 103.152344 60.449219 C 103.144531 60.773438 103.210938 61.089844 103.238281 61.414062 C 103.238281 61.800781 103.300781 62.179688 103.3125 62.5625 C 103.300781 62.804688 103.285156 63.046875 103.273438 63.289062 C 103.265625 63.539062 103.308594 63.789062 103.3125 64.039062 C 103.3125 64.210938 103.261719 64.378906 103.242188 64.550781 C 103.210938 64.757812 103.210938 64.964844 103.203125 65.167969 C 103.191406 65.375 103.144531 65.558594 103.121094 65.769531 C 103.101562 65.96875 103.113281 66.171875 103.082031 66.371094 C 103.058594 66.535156 102.988281 66.683594 102.941406 66.839844 C 102.851562 67.132812 102.832031 67.445312 102.726562 67.738281 C 102.679688 67.871094 102.625 68.019531 102.578125 68.160156 C 102.570312 68.195312 102.589844 68.230469 102.617188 68.253906 C 102.625 68.257812 102.628906 68.261719 102.636719 68.265625 C 102.664062 68.277344 102.710938 68.277344 102.722656 68.242188 C 102.765625 68.125 102.800781 68.007812 102.835938 67.890625 C 102.902344 67.621094 103 67.359375 103.042969 67.082031 C 103.089844 66.746094 103.164062 66.414062 103.238281 66.082031 C 103.285156 65.800781 103.296875 65.511719 103.335938 65.230469 C 103.394531 64.925781 103.382812 64.621094 103.382812 64.3125 C 103.402344 63.894531 103.441406 63.460938 103.429688 63.039062 C 103.425781 62.820312 103.390625 62.601562 103.390625 62.382812 C 103.402344 62.128906 103.449219 61.871094 103.40625 61.617188 C 103.335938 61.304688 103.347656 60.988281 103.308594 60.671875 C 103.234375 60.277344 103.144531 59.886719 103.125 59.484375 C 103.109375 59.394531 103.125 59.15625 103.027344 59.105469 C 103.015625 59.101562 103.003906 59.097656 102.988281 59.09375 C 102.960938 59.097656 102.945312 59.121094 102.945312 59.148438 Z M 83.136719 57.320312 C 83.152344 57.242188 83.167969 57.167969 83.199219 57.09375 C 83.335938 56.8125 83.40625 56.507812 83.53125 56.21875 C 83.621094 56.03125 83.746094 55.867188 83.832031 55.675781 C 83.898438 55.527344 83.957031 55.375 84.03125 55.234375 C 84.128906 55.074219 84.242188 54.921875 84.320312 54.757812 C 84.378906 54.644531 84.421875 54.527344 84.464844 54.410156 C 84.539062 54.230469 84.65625 54.070312 84.78125 53.925781 C 84.902344 53.78125 85.039062 53.652344 85.15625 53.507812 C 85.296875 53.332031 85.402344 53.132812 85.554688 52.964844 C 85.679688 52.835938 85.828125 52.726562 85.953125 52.59375 C 86.066406 52.484375 86.15625 52.355469 86.273438 52.25 C 86.578125 51.984375 86.882812 51.71875 87.1875 51.453125 C 87.519531 51.1875 87.914062 51.023438 88.261719 50.765625 C 88.53125 50.640625 88.816406 50.539062 89.082031 50.390625 C 89.199219 50.335938 89.304688 50.261719 89.429688 50.210938 C 89.550781 50.160156 89.691406 50.148438 89.824219 50.117188 C 90.054688 50.066406 90.269531 49.957031 90.507812 49.914062 C 90.761719 49.882812 91.015625 49.792969 91.277344 49.789062 C 91.429688 49.773438 91.582031 49.78125 91.734375 49.769531 C 91.917969 49.746094 92.082031 49.695312 92.265625 49.671875 C 92.355469 49.664062 92.445312 49.667969 92.53125 49.667969 C 92.554688 49.664062 92.570312 49.636719 92.570312 49.613281 C 92.570312 49.605469 92.566406 49.597656 92.5625 49.59375 C 92.554688 49.570312 92.53125 49.566406 92.5 49.570312 C 92.230469 49.546875 91.953125 49.554688 91.679688 49.5625 C 91.324219 49.628906 90.976562 49.714844 90.613281 49.75 C 90.136719 49.828125 89.679688 50 89.238281 50.199219 C 88.859375 50.308594 88.503906 50.492188 88.152344 50.667969 C 87.925781 50.800781 87.695312 50.929688 87.492188 51.097656 C 87.332031 51.261719 87.136719 51.367188 86.949219 51.492188 C 86.726562 51.628906 86.554688 51.824219 86.363281 51.996094 C 86.210938 52.117188 86.042969 52.230469 85.929688 52.398438 C 85.816406 52.527344 85.734375 52.664062 85.617188 52.789062 C 85.390625 53.011719 85.175781 53.246094 84.972656 53.488281 C 84.71875 53.769531 84.546875 54.105469 84.351562 54.421875 C 84.167969 54.6875 84.023438 54.980469 83.878906 55.269531 C 83.707031 55.554688 83.59375 55.878906 83.453125 56.183594 C 83.367188 56.355469 83.292969 56.53125 83.234375 56.714844 C 83.195312 56.832031 82.929688 57.277344 83.066406 57.367188 C 83.070312 57.371094 83.074219 57.375 83.078125 57.375 C 83.109375 57.378906 83.132812 57.347656 83.136719 57.320312 Z M 84.550781 72.664062 C 84.390625 72.429688 84.257812 72.175781 84.105469 71.933594 C 83.96875 71.714844 83.878906 71.472656 83.777344 71.234375 C 83.699219 71.082031 83.605469 70.9375 83.558594 70.765625 C 83.519531 70.613281 83.476562 70.460938 83.410156 70.320312 C 83.328125 70.15625 83.230469 70 83.1875 69.816406 C 83.167969 69.78125 83.160156 69.710938 83.101562 69.714844 C 83.085938 69.71875 83.082031 69.730469 83.082031 69.746094 C 83.082031 69.753906 83.082031 69.757812 83.082031 69.765625 C 83.214844 70.285156 83.421875 70.785156 83.640625 71.277344 C 83.734375 71.535156 83.914062 71.742188 84.035156 71.984375 C 84.191406 72.292969 84.34375 72.605469 84.5625 72.875 C 84.582031 72.910156 84.597656 72.953125 84.648438 72.957031 C 84.65625 72.957031 84.664062 72.953125 84.671875 72.949219 C 84.769531 72.902344 84.589844 72.722656 84.550781 72.664062 Z M 84.550781 72.664062 " fill-opacity="1" fill-rule="nonzero"/></g></svg>